<svg width="30" height="30" viewBox="0 0 30 30" fill="none" xmlns="http://www.w3.org/2000/svg">
<circle cx="15" cy="15" r="15" fill="#001872"/>
<path d="M15.0007 11.0991C12.9633 11.0991 11.2988 12.7617 11.2988 14.7968C11.2988 15.8608 11.7649 16.885 12.5505 17.5766C13.1364 18.1619 13.0832 19.4122 13.0699 19.4255C13.0699 19.492 13.0832 19.5452 13.1364 19.5984C13.1764 19.6383 13.243 19.6649 13.2962 19.6649H16.6918C16.7584 19.6649 16.8117 19.6383 16.8516 19.5984C16.8916 19.5585 16.9182 19.492 16.9182 19.4255C16.9182 19.4122 16.8516 18.1619 17.4375 17.5766C17.4508 17.5633 17.4642 17.55 17.4775 17.5367C18.2498 16.8318 18.7026 15.8342 18.7026 14.7968C18.7026 12.7617 17.0381 11.0991 15.0007 11.0991ZM17.1313 17.2308C17.1179 17.2441 17.0913 17.2707 17.0913 17.284C16.572 17.8427 16.4788 18.7604 16.4655 19.1994H13.5226C13.5093 18.7604 13.4161 17.8028 12.8568 17.2308C12.1511 16.619 11.7383 15.7278 11.7383 14.7835C11.7383 12.9878 13.1897 11.5381 14.9874 11.5381C16.785 11.5381 18.2365 12.9878 18.2365 14.7835C18.2365 15.7278 17.837 16.619 17.1313 17.2308Z" fill="white"/>
<path d="M14.9976 9.99513C15.1306 9.99513 15.2237 9.88872 15.2237 9.76902V8.22611C15.2237 8.10641 15.1173 8 14.9976 8C14.8779 8 14.7715 8.10641 14.7715 8.22611V9.76902C14.7715 9.88872 14.8779 9.99513 14.9976 9.99513Z" fill="white"/>
<path d="M18.7675 9.14386C18.6609 9.06406 18.5278 9.10396 18.4612 9.19707L17.609 10.474C17.5291 10.5804 17.5557 10.7267 17.6622 10.7932C17.7022 10.8198 17.7421 10.8331 17.7821 10.8331C17.862 10.8331 17.9285 10.7932 17.9685 10.7267L18.8207 9.44978C18.9006 9.35668 18.874 9.21037 18.7675 9.14386Z" fill="white"/>
<path d="M12.2941 10.7799C12.334 10.7799 12.374 10.7666 12.4139 10.74C12.5204 10.6735 12.5471 10.5272 12.4805 10.4208L11.6549 9.13059C11.5883 9.02419 11.4418 8.99759 11.3353 9.06409C11.2288 9.13059 11.2021 9.2769 11.2687 9.38331L12.0943 10.6735C12.1476 10.7533 12.2142 10.7799 12.2941 10.7799Z" fill="white"/>
<path d="M10.6833 12.1896L9.33834 11.458C9.23181 11.4048 9.08534 11.4447 9.03207 11.5511C8.96549 11.6575 9.00544 11.8039 9.12529 11.8571L10.4702 12.5886C10.5102 12.6019 10.5368 12.6152 10.5767 12.6152C10.6566 12.6152 10.7365 12.5753 10.7765 12.4955C10.8297 12.3891 10.7898 12.2428 10.6833 12.1896Z" fill="white"/>
<path d="M16.4312 20.0174L13.5682 20.0164C13.4492 20.0205 13.3396 20.1254 13.3437 20.2443C13.3361 20.3696 13.4412 20.4791 13.5719 20.4686L16.4349 20.4696C16.4764 20.4622 16.5061 20.4612 16.5412 20.4421C16.6114 20.404 16.6625 20.3308 16.6594 20.2416C16.6553 20.1228 16.5503 20.0133 16.4312 20.0174Z" fill="white"/>
<path d="M15.7696 20.823L14.2382 20.8221C14.1191 20.8262 14.0095 20.9311 14.0136 21.05C14.006 21.1752 14.1111 21.2847 14.2418 21.2743L15.7732 21.2752C15.8147 21.2679 15.8444 21.2668 15.8795 21.2478C15.9497 21.2097 16.0008 21.1365 15.9977 21.0473C15.9937 20.9284 15.8886 20.8189 15.7696 20.823Z" fill="white"/>
<path d="M20.9765 11.5511C20.9233 11.4447 20.7768 11.4048 20.6703 11.458L19.312 12.1896C19.2055 12.2428 19.1655 12.3891 19.2188 12.4955C19.2588 12.5753 19.3386 12.6152 19.4185 12.6152C19.4585 12.6152 19.4984 12.6019 19.5251 12.5886L20.8833 11.8571C20.9898 11.8039 21.0298 11.6575 20.9765 11.5511Z" fill="white"/>
</svg>
