<?xml version="1.0" standalone="no"?>
<!DOCTYPE svg PUBLIC "-//W3C//DTD SVG 20010904//EN"
 "http://www.w3.org/TR/2001/REC-SVG-20010904/DTD/svg10.dtd">
<svg version="1.0" xmlns="http://www.w3.org/2000/svg"
 width="10772.000000pt" height="4860.000000pt" viewBox="0 0 10772.000000 4860.000000"
 preserveAspectRatio="xMidYMid meet">
<metadata>
Created by potrace 1.15, written by Peter Selinger 2001-2017
</metadata>
<g transform="translate(0.000000,4860.000000) scale(0.100000,-0.100000)"
fill="#000000" stroke="none">
<path d="M0 45642 l0 -2958 65 -264 c204 -823 417 -1497 677 -2140 215 -531
474 -1042 728 -1442 534 -836 1102 -1371 1805 -1698 77 -36 146 -70 153 -77 7
-7 24 -16 38 -19 13 -3 24 -9 24 -13 0 -4 -60 -26 -132 -50 -179 -58 -160 -48
-368 -178 -874 -548 -1884 -1267 -2805 -1996 l-160 -127 -3 513 c-1 281 -6
1770 -11 3307 -5 1780 -8 -4703 -9 -17852 l-2 -20648 4258 1 4257 1 -200 24
c-2091 250 -4241 674 -6410 1265 -385 105 -814 228 -832 237 -6 4 1311 293
2928 642 1617 349 2944 638 2950 641 5 3 -517 1038 -1161 2300 -643 1262
-1170 2297 -1170 2301 0 4 82 -50 183 -119 289 -200 985 -663 1307 -870 2191
-1409 4126 -2404 5975 -3073 1955 -707 4438 -1212 6660 -1355 486 -31 642 -36
1225 -42 740 -7 1257 10 1880 62 710 60 1471 176 1974 301 77 18 141 33 143
31 4 -5 -533 -268 -770 -376 -2097 -962 -4322 -1597 -6787 -1936 l-245 -33
8241 -1 8242 -1 103 91 c442 389 926 882 1293 1314 1255 1482 2157 3246 2626
5135 72 293 192 852 219 1025 126 809 79 1732 -134 2590 -123 498 -267 896
-489 1350 -629 1286 -1620 2300 -2971 3039 -815 447 -1661 724 -2475 811 -326
35 -804 31 -1130 -11 -1473 -186 -2674 -1087 -3371 -2529 -271 -561 -422
-1072 -491 -1660 -17 -148 -17 -724 0 -865 95 -772 361 -1417 826 -2000 128
-160 416 -448 576 -576 534 -425 1171 -701 1840 -798 1050 -152 2025 191 2669
939 388 450 678 1077 787 1700 36 205 45 548 19 741 -68 513 -306 966 -726
1384 -233 232 -444 392 -653 494 -767 377 -1661 122 -2156 -615 -113 -167
-179 -320 -221 -512 -26 -119 -37 -411 -20 -552 57 -482 282 -940 601 -1221
455 -401 1176 -490 1759 -218 52 24 96 42 98 40 6 -6 -85 -151 -153 -243 -353
-480 -799 -749 -1364 -824 -211 -28 -521 -11 -776 41 -333 69 -752 243 -1017
422 -503 341 -862 892 -1006 1543 -54 242 -65 363 -66 690 0 246 4 338 18 445
185 1366 1031 2494 2227 2968 579 230 1177 300 1795 211 999 -144 1995 -654
2760 -1414 807 -803 1273 -1785 1365 -2880 14 -175 12 -555 -5 -747 -62 -706
-272 -1398 -665 -2193 -765 -1548 -1858 -2497 -3285 -2850 -700 -174 -1468
-200 -2315 -79 -1355 194 -2554 712 -3525 1524 -280 234 -535 486 -771 761
-1251 1462 -1818 3453 -1543 5419 223 1591 967 3072 2125 4225 1707 1702 4129
2506 6474 2149 850 -129 1620 -391 2590 -880 796 -401 1446 -814 2225 -1416
l22 -17 7 172 c13 334 47 786 92 1227 14 135 27 272 30 305 l6 60 -129 82
c-847 535 -1797 999 -2808 1373 -1519 561 -3148 716 -4732 450 -1988 -335
-3734 -1328 -5109 -2906 -822 -943 -1436 -2010 -1819 -3159 -369 -1105 -510
-2269 -409 -3380 123 -1361 597 -2613 1411 -3729 777 -1064 1876 -1984 3253
-2723 299 -161 575 -275 1070 -443 l314 -107 -30 -16 c-59 -30 -331 -136 -504
-195 -990 -338 -2181 -555 -3472 -632 -496 -29 -1347 -30 -1866 0 -1270 72
-2459 254 -3757 575 -1083 268 -1988 584 -2940 1024 -121 56 -407 182 -635
281 -1776 762 -3410 1595 -4970 2530 -2315 1388 -4364 2929 -6275 4718 -296
277 -1200 1182 -1466 1467 -519 556 -952 1050 -1391 1584 l-135 164 -6 2091
c-4 1150 -7 2404 -7 2788 l0 696 157 -85 c733 -395 1505 -773 2318 -1132 402
-178 584 -255 589 -250 3 2 -22 108 -55 234 -121 471 -264 1124 -327 1490
l-27 160 -350 188 c-787 423 -2185 1219 -2289 1302 l-24 20 -11 4645 c-6 2555
-11 4958 -11 5340 l0 695 107 95 c1387 1236 2747 2225 4213 3062 482 276 1133
614 1607 834 l192 89 -57 50 c-325 287 -925 874 -1222 1195 -1594 1725 -2628
3541 -2999 5267 -177 824 -255 1704 -254 2883 0 709 19 1216 73 1980 11 151
20 278 20 283 0 4 -385 7 -855 7 l-855 0 0 -2958z m1956 -38767 c2011 -3125
1908 -2964 1902 -2970 -5 -5 -3750 33 -3755 38 -2 2 -6 1131 -8 2508 -3 1377
-7 2688 -10 2913 -4 352 -3 408 9 395 8 -7 846 -1305 1862 -2884z"/>
<path d="M3225 48568 c3 -18 30 -197 60 -398 134 -885 284 -1686 411 -2195 25
-98 46 -181 48 -183 5 -4 3115 2791 3115 2801 1 4 -818 7 -1819 7 l-1821 0 6
-32z"/>
<path d="M8494 48573 c3 -16 19 -113 36 -218 257 -1627 337 -3011 234 -4055
-13 -131 -27 -241 -71 -533 l-6 -38 39 15 c22 9 163 59 314 112 1406 491 3115
1147 4382 1680 442 186 1155 501 1280 565 52 27 768 693 2099 1955 250 237
482 457 515 487 l59 56 -4443 1 -4444 0 6 -27z"/>
<path d="M18235 48198 c-1163 -1111 -2565 -2427 -4305 -4042 -992 -921 -1222
-1140 -1680 -1603 -1166 -1175 -2214 -2391 -3202 -3715 -3118 -4177 -5049
-8620 -5567 -12808 -53 -427 -85 -785 -122 -1350 -17 -261 -23 -1334 -10
-1645 41 -965 141 -1790 327 -2710 619 -3054 1877 -6028 3648 -8620 1136
-1663 2427 -3110 3881 -4350 1528 -1303 3243 -2345 4950 -3008 579 -224 1066
-381 1724 -553 2440 -637 4714 -846 6626 -609 205 26 683 102 699 112 5 3 0
10 -10 16 -11 5 -103 58 -205 118 l-187 108 -123 -14 c-1084 -125 -2187 -125
-3259 1 -1445 169 -2892 548 -4437 1160 -913 362 -1751 763 -2423 1161 -1978
1172 -3800 2894 -5247 4956 -773 1103 -1398 2234 -2068 3742 -1182 2660 -1891
5353 -2069 7860 -9 116 -21 309 -28 430 -17 291 -17 1370 0 1650 49 822 124
1423 268 2160 526 2678 1532 5189 3072 7665 2306 3707 5880 7354 10822 11042
1379 1029 2948 2122 4480 3121 l195 127 -2665 0 -2665 -1 -420 -401z"/>
<path d="M43346 48592 c5 -5 72 -60 149 -122 745 -606 1485 -1337 2090 -2065
1315 -1581 2262 -3405 2791 -5373 239 -892 379 -1758 435 -2702 15 -253 15
-944 0 -1175 -156 -2359 -836 -4568 -2055 -6669 -465 -800 -1006 -1572 -1650
-2354 l-151 -183 -1 -702 c-1 -786 -16 -1209 -69 -1897 -16 -208 -67 -724 -88
-905 l-14 -109 95 99 c952 1004 2454 3071 3554 4890 150 249 374 632 448 768
23 43 45 75 48 72 9 -9 552 -5819 544 -5826 -4 -3 -1069 -81 -2367 -173 -1298
-93 -2361 -169 -2362 -170 -1 -1 -18 -114 -38 -251 -93 -638 -220 -1330 -359
-1950 -25 -110 -43 -201 -42 -203 2 -1 1645 101 3652 228 2007 127 3659 229
3671 228 20 -3 7 -24 -115 -193 -790 -1092 -1689 -2094 -2716 -3030 -335 -305
-966 -835 -995 -835 -9 0 -1128 589 -1836 967 -735 393 -1442 781 -1893 1039
-103 59 -164 89 -167 81 -2 -7 -20 -68 -40 -137 -129 -441 -372 -1189 -529
-1624 -41 -116 -74 -211 -73 -212 26 -19 754 -426 1122 -626 3004 -1637 6120
-3017 9320 -4128 171 -59 361 -124 423 -144 61 -21 112 -39 112 -40 0 -1 -246
-3 -548 -3 -856 -3 -1720 -34 -2697 -98 -3680 -243 -7390 -868 -10764 -1815
-96 -27 -177 -48 -179 -46 -11 11 183 904 306 1414 l69 282 -73 243 c-87 291
-107 346 -189 531 -352 794 -972 1673 -1710 2425 l-201 204 -129 -43 c-181
-60 -438 -155 -650 -240 -294 -118 -785 -342 -785 -357 0 -5 66 -67 147 -138
188 -166 614 -585 798 -785 1025 -1115 1794 -2362 2313 -3750 726 -1945 922
-3952 631 -6465 -145 -1260 -448 -2774 -844 -4227 -41 -152 -75 -281 -75 -287
0 -8 9126 -11 31209 -11 l31209 0 -24 88 c-460 1653 -761 3268 -844 4521 -10
153 -28 601 -24 609 0 1 113 -109 250 -245 1514 -1505 3707 -3319 5895 -4876
l136 -97 127 0 126 0 0 1005 0 1004 -97 83 c-1469 1251 -2397 2101 -3554 3257
-641 642 -1143 1170 -1497 1574 -106 121 -115 104 73 132 623 93 1357 349
2005 700 1092 591 2140 1480 2968 2518 l102 129 0 3102 0 3102 -27 26 c-74 67
-320 238 -483 335 -445 264 -931 427 -1440 484 -146 17 -552 17 -695 0 -493
-56 -934 -188 -1410 -421 -812 -399 -1652 -1093 -2381 -1970 -1278 -1537
-2156 -3631 -2508 -5980 -105 -699 -146 -1215 -153 -1930 -8 -738 24 -1237
111 -1734 13 -72 22 -132 21 -134 -9 -10 -292 656 -490 1153 -421 1058 -828
2227 -1164 3345 -51 168 -96 314 -100 324 -5 14 -18 -13 -50 -105 -650 -1874
-1510 -3958 -2319 -5621 l-120 -248 -194 112 c-2061 1186 -4308 2247 -6452
3048 -2016 752 -4110 1335 -5666 1575 -129 20 -236 38 -238 39 -2 2 23 7 55
11 158 19 820 134 1148 200 3183 635 5758 1840 7785 3644 216 192 769 742 956
952 1398 1563 2374 3404 2874 5419 84 342 198 880 226 1070 153 1057 20 2248
-369 3290 -172 460 -409 928 -672 1330 -505 768 -1153 1412 -1960 1949 -918
610 -1917 1011 -2857 1145 -310 45 -407 51 -758 50 -277 0 -365 -4 -510 -22
-729 -89 -1333 -309 -1901 -694 -637 -430 -1152 -1040 -1533 -1813 -298 -604
-468 -1200 -517 -1820 -13 -165 -7 -602 11 -745 83 -680 306 -1269 684 -1804
227 -323 542 -642 866 -878 453 -329 993 -558 1560 -662 238 -43 339 -51 630
-50 288 1 426 14 655 65 685 152 1272 542 1687 1121 278 389 507 926 602 1413
49 253 62 592 31 815 -86 610 -405 1132 -985 1615 -181 150 -388 269 -590 339
-733 256 -1543 -43 -1983 -731 -151 -236 -214 -449 -224 -754 -11 -339 52
-636 197 -938 170 -350 412 -611 705 -758 112 -57 317 -125 450 -149 152 -29
471 -27 621 4 143 28 273 72 402 133 l104 49 -28 -48 c-420 -723 -1117 -1102
-1918 -1043 -303 22 -500 68 -846 199 -224 84 -441 201 -618 334 -117 88 -320
283 -409 393 -323 400 -523 920 -574 1494 -15 173 -7 576 15 741 84 626 323
1236 675 1729 280 391 617 709 1016 960 131 83 449 238 601 295 758 280 1527
293 2379 40 629 -187 1287 -549 1814 -997 136 -115 406 -382 525 -517 626
-712 996 -1520 1118 -2445 20 -149 22 -215 23 -535 0 -391 -9 -505 -61 -810
-100 -582 -308 -1182 -640 -1840 -845 -1679 -2084 -2640 -3725 -2889 -346 -53
-828 -74 -1189 -52 -2159 130 -3989 1061 -5192 2641 -1410 1853 -1765 4378
-931 6630 278 750 672 1452 1160 2066 195 244 321 384 592 654 252 251 452
430 687 613 1091 852 2406 1398 3771 1566 406 50 994 68 1378 41 1130 -78
2060 -356 3290 -984 1132 -578 2064 -1235 2984 -2105 80 -76 132 -118 135
-110 2 8 16 104 31 214 49 370 156 978 207 1180 l13 50 124 75 c68 41 122 80
121 85 -4 14 -239 209 -445 370 -1079 840 -2410 1562 -3840 2083 -851 310
-1684 481 -2640 543 -232 15 -827 15 -1065 0 -1681 -107 -3197 -637 -4515
-1581 -1111 -796 -2084 -1905 -2760 -3145 -864 -1585 -1227 -3422 -1009 -5110
257 -1994 1262 -3720 2954 -5074 509 -407 1067 -772 1695 -1108 253 -136 610
-282 1069 -438 164 -56 295 -104 290 -107 -67 -40 -505 -202 -759 -281 -972
-302 -2018 -480 -3285 -559 -278 -18 -1501 -17 -1780 0 -1193 75 -2157 208
-3245 449 -1351 299 -2429 658 -3585 1196 -113 52 -340 152 -505 222 -1733
737 -3442 1607 -5035 2563 -3693 2216 -6888 4974 -9375 8092 -2048 2567 -3565
5336 -4355 7947 -71 234 -210 734 -210 756 0 4 69 -56 153 -134 762 -712 1777
-1489 2807 -2151 1203 -773 2709 -1575 4195 -2233 382 -169 595 -259 600 -253
3 2 -27 128 -65 279 -130 511 -264 1127 -316 1449 -14 85 -28 156 -32 158 -18
6 -732 393 -992 537 -2753 1527 -4992 3034 -6420 4321 -189 170 -660 632 -660
648 0 16 122 232 283 501 706 1180 1640 2465 2639 3630 1972 2299 4195 4187
6570 5580 l205 120 -1270 3 -1270 2 -276 -197 c-2159 -1546 -4370 -3541 -6496
-5863 -1041 -1137 -2109 -2416 -2765 -3313 l-145 -198 -7 203 c-18 525 -49
813 -144 1333 -209 1145 -717 2904 -1366 4735 -57 159 -200 470 -400 870 -401
802 -831 1518 -1329 2214 l-154 216 -1744 0 c-960 0 -1741 -4 -1735 -8z m7567
-14309 c298 -593 497 -1016 1100 -2338 835 -1834 1241 -2669 1664 -3430 247
-442 534 -897 738 -1169 l97 -129 -12 -46 c-54 -214 -359 -880 -680 -1486
-515 -968 -1464 -2584 -1915 -3260 -151 -227 -160 -238 -163 -205 -167 1878
-1071 12435 -1067 12458 5 26 9 31 19 23 7 -6 106 -194 219 -418z m8176
-13301 c1580 -2455 2875 -4470 2878 -4479 6 -15 -27 -16 -383 -10 -214 3
-2765 30 -5669 58 -2904 29 -5282 54 -5284 55 -2 2 68 79 155 171 1227 1300
2537 3026 3439 4528 762 1269 1498 2803 1937 4032 23 67 46 119 49 115 3 -4
1299 -2015 2878 -4470z m-4179 -9412 c1899 -30 3616 -110 5510 -255 9345 -718
19120 -2903 28755 -6428 523 -192 509 -186 504 -192 -10 -9 -891 -329 -1429
-517 -1667 -585 -3238 -1082 -4555 -1443 -1502 -412 -3222 -754 -5270 -1049
-938 -135 -2160 -286 -2176 -268 -3 4 -18 88 -33 187 -305 2049 -1344 3813
-3058 5192 -1315 1059 -3023 1897 -5048 2478 -1215 348 -1996 476 -2915 476
-341 0 -532 -10 -820 -42 -2317 -259 -3956 -1666 -4221 -3624 -25 -183 -25
-620 -1 -795 49 -348 134 -638 272 -927 557 -1166 1804 -1955 3464 -2193 375
-54 532 -64 936 -65 388 0 461 5 745 51 648 104 1234 362 1747 770 137 109
440 415 559 564 130 163 364 513 364 543 0 4 -31 -8 -68 -27 -392 -197 -1006
-368 -1552 -431 -427 -49 -914 -49 -1355 1 -959 107 -1832 468 -2360 976 -292
280 -460 559 -536 888 -28 122 -36 365 -15 490 56 344 215 638 501 926 561
565 1447 927 2545 1041 237 24 838 24 1080 0 1087 -109 1987 -474 2545 -1032
264 -264 427 -548 496 -866 25 -113 31 -315 16 -460 l-8 -76 133 -100 c393
-295 736 -629 943 -918 217 -303 342 -747 321 -1145 -54 -1023 -739 -1837
-1671 -1985 -411 -65 -1606 -74 -2540 -20 -2498 147 -5792 739 -9185 1651
-1411 380 -2683 787 -4215 1351 -3865 1422 -7611 3311 -10470 5278 -562 387
-1247 897 -1228 915 27 26 939 205 1633 320 3331 553 7515 826 11660 760z"/>
<path d="M56609 10326 c-7 -7 -352 -114 -619 -192 -1387 -406 -2868 -716
-4215 -883 -1737 -216 -3328 -191 -4557 69 -77 16 -144 30 -147 29 -3 0 84
-29 194 -65 2526 -822 4890 -1958 6570 -3159 338 -241 798 -603 1002 -788 l23
-20 -25 74 c-155 456 -182 1089 -70 1694 193 1046 823 2163 1774 3148 52 53
90 97 84 97 -5 0 -12 -2 -14 -4z"/>
<path d="M65136 48408 c-2153 -3633 -3389 -7293 -3640 -10778 -35 -487 -41
-658 -41 -1305 0 -650 6 -828 41 -1300 52 -704 152 -1423 294 -2120 727 -3560
2283 -6938 4523 -9815 826 -1060 1781 -2077 2753 -2929 1821 -1599 3784 -2760
5833 -3452 445 -150 783 -247 1376 -395 2242 -559 4334 -751 6120 -563 319 33
889 120 908 138 4 4 -28 27 -70 51 -43 24 -132 76 -198 115 l-120 71 -204 -23
c-585 -64 -1094 -88 -1726 -80 -867 10 -1626 86 -2490 248 -1586 297 -3338
892 -4910 1669 -2864 1416 -5461 3981 -7207 7121 -391 702 -812 1571 -1185
2443 -1110 2602 -1766 5218 -1918 7646 -94 1511 -5 2834 286 4260 641 3135
1977 6109 4035 8978 l153 212 -1249 0 -1249 0 -115 -192z"/>
<path d="M73395 48486 l-120 -114 45 -12 c3161 -815 6333 -2383 9330 -4613
1132 -843 2284 -1823 3197 -2721 129 -127 204 -194 207 -185 3 8 42 154 86
324 80 305 241 875 319 1130 l40 130 -56 85 c-336 510 -931 1319 -1438 1955
-632 794 -1236 1474 -1934 2178 -703 709 -1313 1254 -2024 1810 l-187 147
-3673 0 -3672 -1 -120 -113z"/>
<path d="M84520 48533 c203 -147 737 -549 945 -713 738 -581 1443 -1193 2073
-1798 112 -107 204 -193 206 -191 2 2 58 128 124 279 305 700 630 1382 999
2102 106 207 193 379 193 382 0 3 -1043 6 -2317 6 l-2317 0 94 -67z"/>
<path d="M94441 47418 c-959 -5320 -1251 -7029 -1745 -10223 -300 -1939 -694
-4632 -679 -4645 4 -4 98 -43 208 -85 1668 -646 3173 -1534 4347 -2566 81 -71
152 -129 158 -129 6 0 37 13 69 29 110 56 397 184 600 267 926 382 1838 641
2851 808 l255 43 87 244 c248 693 498 1487 693 2199 111 404 322 1267 312
1276 -5 6 -320 43 -587 69 -1696 165 -3341 114 -4948 -155 -497 -83 -910 -170
-1476 -311 -153 -38 -296 -69 -318 -69 -48 0 -82 17 -127 64 l-34 35 22 88
c91 367 299 1102 446 1578 1047 3389 2772 7030 4900 10340 390 607 1139 1694
1167 1695 9 0 198 -118 216 -134 10 -10 0 -38 -49 -142 -375 -792 -572 -1485
-651 -2294 -8 -88 -13 -281 -13 -555 0 -449 7 -554 61 -920 195 -1322 824
-2687 1842 -3998 63 -81 119 -150 125 -154 12 -7 4 725 -13 1117 -110 2662
-469 5034 -1122 7413 l-81 297 -3151 0 -3152 0 -213 -1182z"/>
<path d="M101893 48583 c41 -145 194 -739 247 -960 396 -1651 661 -3314 805
-5048 98 -1181 141 -2449 115 -3365 l-12 -435 224 -220 c1108 -1090 2405
-2068 3888 -2932 161 -94 550 -313 557 -313 1 0 3 2990 3 6645 l0 6645 -2916
0 c-2773 0 -2916 -1 -2911 -17z"/>
<path d="M34721 47519 c-58 -5 -108 -12 -111 -16 -12 -13 -2003 -4724 -1999
-4728 3 -2 100 12 217 30 235 38 561 78 777 96 77 7 145 17 151 23 6 6 46 99
89 206 554 1394 1278 2872 2042 4169 47 79 81 147 76 151 -9 9 -214 34 -458
55 -213 19 -646 27 -784 14z"/>
<path d="M71934 46967 c-715 -791 -1286 -1480 -1840 -2223 -218 -291 -500
-683 -509 -707 -5 -10 16 -16 87 -25 164 -22 546 -82 778 -123 2724 -482 5435
-1475 7674 -2812 994 -593 1909 -1256 2751 -1992 318 -278 527 -476 936 -884
494 -495 765 -789 1154 -1256 836 -1001 1608 -2143 2161 -3201 l69 -131 0 691
c0 801 21 1284 85 2016 35 388 117 1121 135 1211 5 21 -24 64 -182 270 -1144
1485 -2464 2919 -3843 4175 -2384 2170 -4773 3694 -7225 4609 -278 104 -831
286 -1125 370 -300 87 -851 225 -890 224 -20 0 -66 -45 -216 -212z"/>
<path d="M37656 47041 c-76 -120 -372 -619 -498 -841 -457 -801 -896 -1662
-1270 -2490 -118 -260 -338 -773 -334 -777 2 -2 64 69 137 159 652 798 1399
1651 2139 2443 377 403 475 503 478 490 2 -8 -1 -37 -6 -67 l-10 -53 76 83
c54 58 82 82 93 77 34 -13 445 -464 679 -746 l99 -118 58 72 c190 233 568 646
701 765 69 61 72 67 55 80 -32 25 -611 307 -803 392 -400 177 -930 377 -1320
498 -270 84 -244 81 -274 33z"/>
<path d="M41389 45082 c-348 -303 -689 -673 -998 -1082 -65 -85 -121 -160
-125 -167 -4 -7 33 -72 92 -160 389 -583 792 -1262 1201 -2026 29 -53 56 -95
59 -93 258 157 832 458 1117 585 343 154 780 320 1110 422 94 28 173 55 178
59 13 11 -237 351 -474 645 -441 547 -959 1072 -1502 1523 -130 108 -419 336
-493 389 l-31 22 -134 -117z"/>
<path d="M38156 45110 c-2 -8 -16 -82 -30 -165 -14 -82 -102 -591 -196 -1131
-93 -539 -170 -985 -170 -990 0 -5 67 122 148 281 232 454 465 860 694 1212
l99 152 -139 174 c-77 95 -191 233 -253 307 -63 73 -122 142 -131 154 -14 17
-18 18 -22 6z"/>
<path d="M25635 44053 c-843 -571 -1242 -845 -1759 -1206 l-329 -230 289 -97
c706 -237 1278 -465 2022 -805 45 -21 84 -36 86 -34 2 2 -3 99 -10 214 -38
624 -84 1841 -84 2233 0 34 -3 62 -7 62 -5 -1 -98 -62 -208 -137z"/>
<path d="M39643 42857 c-136 -240 -298 -551 -424 -817 -66 -139 -119 -253
-117 -255 2 -1 53 -33 113 -70 380 -234 808 -557 1128 -854 56 -52 104 -88
110 -84 11 7 388 273 397 280 14 12 -433 826 -707 1287 -150 251 -404 656
-412 656 -4 0 -44 -65 -88 -143z"/>
<path d="M68696 42668 c-37 -59 -198 -340 -307 -536 -812 -1457 -1403 -2965
-1733 -4422 -44 -193 -116 -547 -116 -567 0 -18 -24 -34 216 147 591 448 1212
794 1959 1092 247 98 725 258 985 329 107 29 196 54 198 55 2 1 -40 116 -92
255 -430 1153 -764 2372 -955 3483 -18 104 -34 172 -42 177 -8 5 -33 9 -56 9
-33 0 -46 -5 -57 -22z"/>
<path d="M69381 42582 c9 -23 558 -588 945 -972 609 -603 1068 -1044 2344
-2250 1776 -1678 2605 -2472 3365 -3220 171 -168 416 -409 545 -535 961 -939
2389 -2171 4090 -3526 651 -519 1465 -1154 1494 -1165 8 -3 60 32 128 88 319
263 688 529 1001 722 42 27 79 52 82 56 7 12 -119 370 -230 650 -501 1269
-1221 2504 -2101 3601 -492 614 -1052 1196 -1670 1738 -1561 1370 -3358 2501
-5364 3376 -1405 614 -2943 1106 -4335 1388 -288 59 -298 60 -294 49z"/>
<path d="M22278 41708 c-2129 -1548 -3997 -3047 -5583 -4482 -433 -391 -799
-736 -1365 -1283 l-165 -160 85 -22 c2679 -706 5276 -1891 7815 -3568 1640
-1083 3134 -2278 4568 -3652 164 -157 302 -287 305 -288 4 -2 22 57 41 130 55
218 198 737 267 975 l65 223 -135 407 c-825 2495 -1415 4944 -1790 7437 -130
861 -245 1862 -341 2949 -14 159 -27 291 -29 293 -11 12 -665 320 -881 416
-778 345 -1706 682 -2412 876 l-73 20 -372 -271z"/>
<path d="M44855 41135 c-5 -2 -98 -27 -205 -55 -107 -28 -314 -91 -460 -140
-599 -201 -1120 -441 -1697 -784 l-163 -96 26 -58 c212 -470 603 -1449 741
-1850 21 -62 33 -84 48 -87 11 -2 91 -8 177 -14 404 -29 998 -118 1506 -226
269 -58 812 -193 1002 -250 18 -6 18 -19 -6 255 -92 1067 -380 2142 -841 3135
-78 169 -90 184 -128 170z"/>
<path d="M41533 39524 l-31 -25 68 -107 c37 -59 106 -174 154 -257 47 -82 86
-146 86 -143 0 4 -41 103 -91 220 -49 117 -102 241 -116 276 -15 34 -29 62
-32 62 -3 -1 -20 -12 -38 -26z"/>
<path d="M37025 38678 c-2 -7 -40 -218 -85 -468 -45 -250 -239 -1328 -431
-2395 -603 -3345 -840 -4668 -1049 -5870 -55 -319 -112 -643 -125 -719 -14
-77 -23 -142 -20 -144 11 -11 420 226 665 386 1412 921 2678 2326 3385 3757
307 623 481 1165 551 1720 22 173 25 563 5 705 -48 349 -131 582 -330 929
-401 700 -955 1289 -1573 1675 -258 162 -511 283 -783 376 -174 59 -204 66
-210 48z"/>
<path d="M70405 36926 c-1294 -434 -2541 -1141 -3740 -2121 -134 -110 -361
-302 -389 -330 -14 -15 -16 -61 -16 -413 0 -397 11 -794 30 -1122 13 -217 38
-559 46 -623 l6 -47 46 41 c603 538 1081 913 1660 1303 1084 730 2283 1304
3472 1661 69 21 127 39 129 41 1 1 -49 85 -112 186 -270 431 -529 885 -768
1345 -52 100 -90 163 -99 163 -8 0 -127 -38 -265 -84z"/>
<path d="M42654 36413 c9 -30 44 -307 63 -498 30 -310 23 -993 -13 -1227 -5
-35 -3 -37 38 -60 195 -110 301 -172 411 -244 70 -46 127 -79 127 -74 0 35
-191 816 -291 1190 -65 242 -241 857 -258 903 -9 22 -16 27 -46 27 -30 0 -35
-3 -31 -17z"/>
<path d="M43684 36341 c3 -9 39 -137 80 -286 231 -837 425 -1663 585 -2503
l50 -262 99 -118 c55 -64 150 -184 212 -267 62 -82 116 -154 120 -159 14 -14
199 392 335 734 281 707 490 1482 595 2200 11 80 23 154 25 166 4 19 -10 25
-163 72 -676 206 -1182 321 -1920 436 -17 2 -21 -1 -18 -13z"/>
<path d="M13904 34467 c-857 -939 -1600 -1850 -2258 -2770 -98 -137 -174 -252
-170 -257 5 -4 83 -17 174 -30 397 -53 1002 -161 1470 -261 3409 -728 6547
-2160 8980 -4097 1245 -992 2389 -2169 3354 -3452 589 -782 1156 -1669 1558
-2438 l75 -143 -5 493 c-10 1059 63 2231 208 3317 l19 144 -162 211 c-628 817
-1336 1648 -2094 2458 -443 474 -1189 1210 -1703 1682 -2419 2220 -4933 3819
-7415 4716 -558 202 -1220 400 -1720 514 -88 20 -167 39 -175 41 -10 3 -59
-43 -136 -128z"/>
<path d="M102441 34317 c-194 -875 -470 -1856 -797 -2837 -84 -250 -151 -456
-150 -457 1 -2 63 2 137 7 451 32 1196 32 1708 0 926 -59 1875 -217 2695 -450
366 -104 940 -296 1423 -476 139 -52 255 -94 258 -94 3 0 5 666 5 1479 l0
1480 -357 141 c-595 236 -893 346 -1383 512 -1114 375 -2281 675 -3335 858
-66 11 -129 22 -140 25 -19 4 -24 -10 -64 -188z"/>
<path d="M72940 33513 c-125 -22 -497 -100 -629 -133 -1811 -448 -3624 -1486
-5256 -3011 -99 -92 -224 -212 -278 -266 l-98 -99 51 -229 c76 -338 188 -780
284 -1119 47 -164 88 -301 91 -304 3 -3 29 21 58 54 845 957 1834 1765 2892
2362 1191 671 2555 1120 3970 1307 105 13 210 27 234 31 l44 6 -345 346 c-410
413 -594 612 -896 965 -46 53 -87 96 -90 96 -4 -1 -18 -4 -32 -6z"/>
<path d="M42246 32817 c-204 -533 -472 -1079 -779 -1586 l-99 -163 26 -162
c84 -520 121 -1113 115 -1868 l-4 -465 70 58 c405 336 972 881 1339 1289 270
299 589 690 825 1010 l93 125 -7 82 c-8 109 -15 129 -86 258 -312 558 -783
1094 -1302 1482 -54 40 -107 77 -116 82 -15 9 -25 -9 -75 -142z"/>
<path d="M75855 30353 c-938 -57 -1658 -178 -2491 -418 -1680 -485 -3379
-1425 -4829 -2671 -294 -253 -775 -706 -775 -730 0 -8 27 -76 59 -151 205
-479 447 -980 688 -1425 l76 -141 31 39 c334 422 860 992 1283 1389 1644 1548
3610 2535 5753 2890 359 59 695 97 1130 127 238 16 1095 16 1325 0 94 -7 211
-15 260 -18 l90 -5 -260 133 c-552 285 -1160 638 -1582 920 l-102 68 -303 -2
c-167 -1 -325 -3 -353 -5z"/>
<path d="M10556 30032 c-21 -37 -81 -141 -133 -232 -891 -1539 -1543 -3173
-1888 -4725 -71 -323 -108 -510 -103 -525 2 -6 30 12 63 38 306 247 765 551
1140 754 613 333 1349 624 2035 804 58 15 108 30 113 34 4 3 0 24 -9 46 -99
235 -377 1044 -503 1464 -224 746 -421 1575 -526 2205 -35 211 -32 205 -97
205 l-53 -1 -39 -67z"/>
<path d="M11283 29980 c33 -47 592 -621 939 -965 607 -602 1129 -1102 2508
-2405 1698 -1605 2359 -2239 3481 -3340 569 -558 906 -874 1414 -1326 1127
-1002 2543 -2166 4148 -3408 148 -114 274 -209 281 -212 7 -3 66 39 132 93
310 256 661 510 992 717 80 50 92 61 86 80 -26 85 -177 497 -242 661 -749
1884 -1977 3672 -3460 5038 -1326 1220 -2900 2296 -4617 3155 -1527 764 -3222
1378 -4855 1761 -227 53 -786 171 -811 171 -6 0 -4 -9 4 -20z"/>
<path d="M39675 28873 c-563 -617 -1355 -1369 -2070 -1964 -551 -458 -1222
-967 -1628 -1234 -31 -21 -56 -40 -53 -42 2 -2 118 32 257 76 1051 331 2092
781 3064 1326 176 98 453 260 464 270 8 8 61 349 80 515 39 341 78 991 69
1178 l-3 73 -180 -198z"/>
<path d="M76940 27869 c-2808 -150 -5253 -1475 -7195 -3898 -74 -93 -135 -171
-135 -175 0 -21 1030 15 1950 69 1676 99 3611 283 5725 545 553 69 1366 175
1415 185 25 6 26 10 49 168 82 589 242 1240 448 1822 106 301 307 786 408 986
15 28 24 53 22 55 -13 13 -373 87 -622 128 -329 55 -718 96 -1085 116 -220 11
-761 11 -980 -1z"/>
<path d="M43890 26794 c-964 -969 -2093 -1899 -3260 -2686 -589 -397 -1282
-814 -1716 -1031 l-90 -45 -295 246 c-1212 1015 -2201 1906 -3307 2981 -177
172 -324 312 -326 310 -2 -2 -8 -38 -14 -79 -6 -41 -52 -329 -101 -640 -49
-311 -129 -815 -176 -1120 l-86 -555 39 -35 c83 -75 621 -516 932 -765 2038
-1633 4314 -3213 6620 -4595 168 -100 319 -191 336 -201 l32 -19 52 147 c216
610 591 1811 577 1847 -3 7 -27 26 -54 41 -300 174 -1308 828 -1283 832 8 2
370 25 804 53 434 27 791 52 794 54 13 13 160 675 241 1086 228 1155 367 2252
431 3395 14 258 32 830 28 898 l-3 57 -175 -176z"/>
<path d="M103977 26170 c-43 -4 -80 -9 -81 -11 -6 -6 -2005 -4733 -2003 -4735
1 -1 38 4 82 12 244 43 614 91 904 119 90 8 165 16 167 17 1 2 52 129 114 283
542 1351 1239 2777 1966 4016 74 127 134 232 132 234 -5 5 -242 33 -428 51
-186 17 -733 27 -853 14z"/>
<path d="M106753 25378 c-255 -427 -283 -475 -460 -793 -494 -885 -933 -1775
-1339 -2715 -72 -168 -131 -306 -130 -307 0 -1 69 -9 151 -18 598 -65 1303
-216 1811 -388 l101 -35 68 147 c182 392 463 927 673 1282 l92 156 0 1391 0
1391 -52 19 c-167 62 -665 222 -692 222 -7 0 -107 -159 -223 -352z"/>
<path d="M12290 24336 c-876 -297 -1672 -685 -2500 -1219 -543 -350 -1001
-696 -1612 -1218 l-31 -26 6 -579 c3 -318 11 -664 16 -769 16 -285 52 -776 59
-811 l7 -32 100 91 c779 703 1675 1347 2574 1849 247 138 784 406 1046 522
430 191 945 385 1360 512 121 37 222 69 223 70 2 1 -54 96 -126 211 -268 432
-512 859 -732 1281 -84 161 -109 202 -125 201 -11 0 -130 -37 -265 -83z"/>
<path d="M69850 22874 c1116 -1451 2392 -2577 3850 -3399 732 -413 2149 -1034
3310 -1452 1691 -608 3201 -931 4463 -956 l118 -2 -38 35 c-22 19 -95 84 -163
145 -168 147 -559 538 -704 705 -840 959 -1395 2022 -1742 3335 -26 99 -50
183 -53 187 -3 3 -64 0 -136 -7 -2048 -216 -4116 -91 -5930 359 -1016 252
-1907 578 -2770 1015 -148 75 -274 138 -279 140 -6 2 28 -45 74 -105z"/>
<path d="M14830 20923 c-1653 -286 -3323 -1067 -4883 -2285 -440 -343 -931
-774 -1265 -1110 l-113 -114 55 -246 c91 -408 311 -1246 363 -1386 9 -22 19
-13 148 130 192 213 717 735 915 910 428 379 830 688 1275 980 1382 909 2955
1478 4688 1698 87 11 163 20 170 20 7 0 -148 161 -343 357 -361 363 -554 569
-823 881 -82 94 -152 171 -156 171 -3 -1 -17 -4 -31 -6z"/>
<path d="M36315 20284 c-596 -54 -1230 -212 -1818 -454 l-128 -52 273 -117
c642 -276 1276 -594 1793 -899 142 -84 171 -97 177 -83 4 9 23 106 43 216 69
383 184 876 289 1234 25 85 43 158 40 163 -8 13 -502 7 -669 -8z"/>
<path d="M18010 17774 c-1252 -34 -2441 -270 -3638 -723 -1419 -538 -2829
-1396 -4056 -2469 -269 -236 -666 -616 -666 -638 0 -36 273 -639 466 -1029
131 -265 346 -675 356 -678 2 -1 60 66 128 148 408 497 944 1059 1385 1455
651 584 1351 1085 2090 1497 1317 734 2794 1185 4297 1312 533 46 1243 52
1723 16 110 -8 211 -15 225 -15 15 0 -76 52 -225 128 -533 274 -1039 565
-1500 865 l-200 130 -135 2 c-74 1 -187 1 -250 -1z"/>
<path d="M41035 16819 c-336 -17 -722 -57 -1095 -115 -184 -28 -668 -122 -687
-132 -8 -5 21 -43 84 -112 418 -458 774 -917 1065 -1375 99 -156 240 -394 298
-503 18 -34 37 -59 42 -54 28 28 528 1088 673 1427 57 132 133 305 170 385 38
80 101 219 140 310 l73 165 -67 6 c-91 9 -503 8 -696 -2z"/>
<path d="M18900 15283 c-693 -37 -1270 -122 -1883 -278 -1445 -365 -2734
-1054 -3949 -2110 -223 -194 -780 -748 -984 -979 -272 -308 -592 -701 -580
-713 13 -14 1073 24 1756 62 1964 110 4413 352 6920 686 206 27 389 52 406 55
l31 6 12 101 c45 369 163 926 286 1352 131 454 315 947 505 1355 39 85 78 169
86 187 l14 32 -38 11 c-20 5 -136 30 -257 54 -456 93 -905 149 -1405 176 -164
9 -775 11 -920 3z"/>
<path d="M11670 10383 c0 -16 379 -491 560 -703 427 -498 950 -1024 1415
-1424 816 -701 1682 -1269 2615 -1715 419 -201 1015 -464 1532 -677 2110 -869
3959 -1335 5475 -1380 120 -4 216 -5 213 -2 -3 3 -45 40 -95 83 -325 281 -686
646 -957 970 -711 852 -1218 1832 -1547 2993 -32 114 -67 242 -77 285 l-18 79
-41 -6 c-78 -11 -592 -56 -815 -70 -820 -55 -1727 -55 -2510 -1 -2034 143
-3900 634 -5512 1452 -131 66 -238 118 -238 116z"/>
<path d="M107543 6128 c-705 -636 -1474 -1245 -2243 -1777 -58 -40 -96 -70
-85 -67 71 20 487 154 620 200 567 193 1200 451 1723 701 l162 78 0 509 c0
279 -2 508 -4 508 -2 0 -79 -69 -173 -152z"/>
</g>
</svg>
