<?xml version="1.0" standalone="no"?>
<!DOCTYPE svg PUBLIC "-//W3C//DTD SVG 20010904//EN"
 "http://www.w3.org/TR/2001/REC-SVG-20010904/DTD/svg10.dtd">
<svg version="1.0" xmlns="http://www.w3.org/2000/svg"
 width="1024.000000pt" height="462.000000pt" viewBox="0 0 1024.000000 462.000000"
 preserveAspectRatio="xMidYMid meet">
<metadata>
Created by potrace 1.15, written by Peter Selinger 2001-2017
</metadata>
<g transform="translate(0.000000,462.000000) scale(0.100000,-0.100000)"
fill="#000000" stroke="none">
<path d="M0 4321 l0 -300 35 -106 c60 -184 137 -305 232 -365 l43 -27 -82 -54
c-45 -30 -113 -78 -150 -106 l-68 -53 -3 313 c-1 171 -3 -573 -5 -1655 l-2
-1968 413 1 c285 1 392 4 347 10 -147 20 -315 52 -474 91 l-169 41 274 60
c151 32 275 60 276 60 1 1 -46 96 -104 211 -57 114 -99 205 -91 200 7 -4 45
-29 83 -54 343 -229 668 -359 1030 -415 145 -22 391 -30 514 -16 57 6 105 10
107 8 2 -2 -50 -24 -116 -50 -134 -54 -294 -98 -455 -126 l-110 -19 796 -1
796 -1 77 80 c161 169 274 392 315 624 56 312 -137 623 -454 732 -106 37 -240
39 -328 5 -78 -31 -151 -91 -198 -164 -144 -222 -86 -489 129 -594 50 -24 69
-28 147 -28 81 0 95 3 143 29 61 34 96 77 129 155 26 66 30 143 8 195 -38 91
-134 154 -217 143 -115 -15 -175 -147 -115 -251 35 -61 68 -81 137 -81 l59 0
-22 -24 c-71 -77 -234 -62 -309 27 -93 111 -71 312 46 420 78 72 118 87 226
87 86 0 101 -3 161 -33 118 -57 211 -157 250 -269 73 -212 -64 -515 -277 -615
-60 -28 -81 -32 -173 -36 -130 -5 -213 12 -326 68 -220 109 -347 320 -346 575
1 110 19 185 71 290 92 187 241 312 450 376 106 33 273 33 380 0 90 -27 246
-107 319 -162 29 -22 54 -39 56 -37 2 2 5 43 7 92 l3 89 -65 39 c-87 51 -247
113 -342 132 -151 31 -337 16 -482 -38 -185 -70 -359 -232 -455 -423 -58 -116
-83 -224 -85 -358 0 -70 5 -143 13 -175 19 -80 92 -226 145 -292 81 -101 220
-203 343 -253 l58 -24 -35 -15 c-108 -44 -353 -70 -532 -56 -252 21 -403 60
-655 171 -352 155 -623 317 -887 529 -136 109 -319 285 -414 398 l-62 73 0
254 c0 140 2 255 4 255 2 0 65 -30 140 -66 76 -36 140 -64 143 -61 5 6 -24
152 -36 175 -3 7 -60 44 -126 81 l-120 68 -2 509 -2 509 85 70 c114 94 289
210 399 265 50 25 92 46 94 48 2 1 -35 41 -82 90 -162 163 -272 338 -319 508
-19 69 -21 107 -22 296 l-1 218 -82 0 -83 0 0 -299z m177 -3666 c88 -137 163
-256 167 -262 6 -10 -30 -13 -163 -13 l-171 0 0 267 c0 146 2 264 3 262 2 -2
76 -116 164 -254z"/>
<path d="M303 4598 c3 -13 13 -69 22 -125 10 -56 21 -107 26 -114 5 -9 47 23
139 107 73 65 142 127 153 136 21 17 14 18 -162 18 l-183 0 5 -22z"/>
<path d="M804 4603 c14 -50 28 -239 24 -339 -2 -63 -3 -114 -2 -114 9 0 389
147 473 182 98 43 110 51 232 166 l129 122 -431 0 c-405 0 -430 -1 -425 -17z"/>
<path d="M1709 4567 c-560 -521 -657 -620 -808 -812 -305 -389 -496 -802 -567
-1220 -21 -124 -24 -417 -5 -525 110 -632 485 -1200 986 -1495 253 -149 595
-233 911 -223 138 5 192 16 163 34 -8 4 -92 9 -189 9 -228 2 -362 29 -592 120
-357 142 -651 415 -842 786 -181 350 -269 677 -269 1004 -1 180 13 275 68 463
181 626 683 1207 1555 1797 80 54 149 102 154 107 6 4 -107 8 -250 8 l-259 -1
-56 -52z"/>
<path d="M4218 4523 c381 -374 507 -862 347 -1339 -55 -165 -157 -352 -261
-480 -33 -40 -34 -44 -35 -130 0 -49 -4 -127 -9 -174 -4 -47 -6 -87 -3 -90 14
-15 259 316 355 480 30 51 38 60 38 40 1 -14 11 -133 24 -265 13 -132 22 -241
21 -243 -4 -4 -355 -31 -407 -32 -32 0 -37 -4 -42 -27 -32 -167 -38 -205 -33
-210 6 -5 135 2 521 28 82 5 151 7 153 5 15 -15 -249 -304 -319 -350 -27 -18
-27 -18 -145 45 -65 34 -145 77 -177 96 -32 19 -64 32 -70 30 -11 -4 -72 -185
-65 -191 15 -14 241 -133 364 -192 181 -87 305 -140 489 -209 l138 -53 -108
-6 c-430 -26 -752 -72 -1070 -155 l-111 -28 18 78 c18 78 18 80 -1 133 -38
100 -162 266 -200 266 -14 0 -131 -44 -148 -56 -2 -1 29 -35 68 -75 307 -315
385 -736 241 -1311 l-27 -108 2974 0 c2827 0 2973 1 2968 18 -29 91 -68 292
-80 409 l-5 53 107 -98 c187 -169 462 -382 494 -382 16 0 18 10 18 99 l0 99
-116 103 -117 102 39 12 c22 7 74 26 117 44 l77 33 0 55 c0 63 10 66 -97 -24
-35 -29 -81 -65 -103 -79 l-41 -27 -36 34 c-61 58 -198 200 -201 207 -1 4 29
15 66 25 115 30 281 141 372 248 l40 48 -2 308 -3 308 -52 28 c-150 80 -321
42 -480 -107 -204 -190 -315 -463 -330 -806 l-6 -145 -19 45 c-11 25 -44 117
-73 205 -47 140 -55 156 -64 135 -5 -14 -35 -90 -66 -170 -68 -176 -155 -370
-165 -370 -4 0 -82 38 -171 84 -90 47 -218 108 -284 137 -153 66 -439 160
-578 191 l-109 24 104 23 c385 86 672 255 863 510 185 245 269 543 220 775
-25 117 -77 209 -174 307 -73 73 -100 93 -181 132 -119 57 -182 71 -297 65
-77 -3 -101 -9 -156 -36 -112 -55 -196 -166 -232 -307 -36 -142 3 -275 109
-373 72 -65 142 -92 239 -92 123 1 204 53 258 165 37 78 41 180 8 235 -59 99
-138 141 -222 119 -82 -22 -135 -100 -123 -183 14 -91 66 -138 161 -146 l60
-5 -37 -29 c-53 -40 -103 -49 -174 -30 -144 37 -212 171 -169 331 17 62 61
133 109 176 35 31 122 67 174 74 105 12 228 -36 328 -129 75 -70 120 -153 137
-251 31 -186 -110 -454 -283 -536 -209 -99 -494 -37 -677 146 -197 198 -237
486 -106 753 83 169 250 310 433 365 126 37 293 37 408 -1 124 -41 297 -142
396 -231 55 -50 59 -48 71 32 4 28 14 58 23 68 15 17 15 20 -8 38 -106 83
-271 174 -393 215 -434 148 -860 -26 -1067 -435 -74 -147 -102 -376 -64 -530
56 -231 246 -442 487 -541 l58 -24 -38 -13 c-140 -49 -390 -72 -568 -54 -278
29 -490 98 -855 281 -718 360 -1287 943 -1513 1550 -61 165 -63 162 43 77 51
-41 138 -103 193 -137 106 -66 374 -204 418 -215 l26 -6 -20 93 -21 93 -111
62 c-243 136 -470 290 -603 410 l-53 48 56 89 c186 295 475 589 764 778 l105
68 -131 0 -131 0 -59 -44 c-250 -184 -578 -510 -821 -816 l-20 -24 -6 54 c-12
88 -52 250 -102 403 -46 143 -103 262 -176 370 l-39 57 -170 0 -170 0 99 -97z
m707 -1458 c97 -214 177 -372 218 -432 l36 -53 -53 -102 c-72 -142 -200 -355
-203 -337 -2 7 -14 145 -28 304 -40 466 -44 514 -55 629 -5 60 -10 125 -10
145 0 33 1 34 13 16 7 -11 44 -87 82 -170z m947 -1481 c5 -7 -142 -9 -505 -7
-282 2 -518 5 -526 6 -8 1 8 26 40 62 149 168 265 338 365 540 41 82 80 166
86 187 l11 37 261 -407 c144 -224 265 -412 268 -418z m-267 -504 c841 -51
1745 -236 2625 -536 294 -100 278 -94 260 -104 -28 -15 -374 -129 -500 -164
-168 -47 -330 -80 -543 -110 -97 -14 -181 -26 -185 -26 -5 0 -14 29 -21 64
-28 138 -111 286 -223 392 -238 228 -690 380 -960 323 -240 -51 -392 -261
-334 -462 40 -138 169 -230 360 -256 152 -21 291 25 368 122 32 41 46 67 36
67 -2 0 -26 -9 -55 -20 -71 -27 -167 -35 -249 -21 -88 16 -141 39 -192 86 -80
72 -78 151 4 224 158 139 509 104 592 -59 13 -27 20 -54 17 -68 -3 -12 -1 -22
3 -22 5 0 32 -23 60 -50 63 -62 79 -109 61 -183 -14 -59 -65 -121 -112 -136
-156 -47 -616 8 -1087 130 -517 134 -1104 397 -1485 667 l-80 56 64 13 c392
79 1000 107 1576 73z"/>
<path d="M5319 970 c-91 -30 -275 -68 -409 -86 -118 -15 -299 -15 -410 2 -19
2 19 -16 85 -41 226 -86 439 -198 570 -300 32 -25 60 -44 61 -42 1 1 -2 24 -7
52 -20 105 36 261 131 368 68 76 68 76 -21 47z"/>
<path d="M6132 4508 c-149 -276 -238 -535 -278 -808 -22 -155 -15 -442 15
-581 113 -524 410 -1003 806 -1299 304 -227 662 -338 1067 -328 92 2 170 7
174 11 22 21 -25 29 -202 31 -154 2 -207 7 -288 25 -308 71 -576 209 -785 407
-285 268 -499 684 -593 1154 -20 99 -23 145 -23 325 0 195 2 219 28 328 67
281 163 500 329 750 32 48 58 90 58 92 0 3 -56 5 -124 5 l-123 0 -61 -112z"/>
<path d="M6965 4609 c-9 -14 -11 -13 75 -38 351 -103 725 -321 1045 -609 50
-45 93 -82 96 -82 3 0 15 35 27 78 l21 77 -34 50 c-102 149 -287 357 -423 473
l-73 62 -364 0 c-247 0 -366 -3 -370 -11z"/>
<path d="M8142 4521 c68 -54 139 -115 157 -135 41 -42 47 -44 57 -13 4 12 31
71 60 130 30 60 54 110 54 113 0 2 -101 4 -225 4 l-225 0 122 -99z"/>
<path d="M8982 4563 c-101 -564 -166 -948 -211 -1263 -12 -80 -24 -160 -27
-178 -5 -30 -2 -34 28 -44 74 -25 248 -122 332 -184 53 -40 95 -64 105 -61 9
3 59 21 111 40 52 19 128 41 168 48 l73 13 38 121 c46 144 67 232 57 243 -4 4
-112 7 -239 7 -203 -1 -245 -4 -336 -23 -57 -13 -109 -24 -115 -25 -17 -3 -8
34 46 203 107 331 270 663 482 982 39 60 75 108 80 108 4 0 5 -8 1 -17 -85
-207 -80 -384 17 -578 35 -70 107 -175 119 -175 32 0 -22 498 -79 725 l-27
110 -306 3 -307 2 -10 -57z"/>
<path d="M9683 4606 c3 -7 17 -66 31 -129 50 -220 76 -448 76 -656 l0 -137 53
-50 c94 -91 218 -182 350 -258 l47 -28 0 636 0 636 -281 0 c-235 0 -280 -2
-276 -14z"/>
<path d="M3188 4293 c-53 -126 -95 -229 -94 -230 1 -1 28 1 60 4 58 6 59 7 74
47 9 23 55 120 104 217 48 97 88 179 88 182 0 4 -30 7 -68 7 l-67 0 -97 -227z"/>
<path d="M6786 4415 c-77 -89 -181 -224 -175 -229 2 -2 54 -14 114 -25 577
-114 1036 -420 1316 -878 l59 -97 1 77 c1 42 2 80 3 85 1 4 6 58 10 120 l8
113 -78 96 c-228 280 -543 542 -816 679 -104 52 -323 134 -360 134 -9 0 -46
-34 -82 -75z"/>
<path d="M3518 4378 c-63 -114 -151 -298 -145 -304 2 -2 58 59 126 136 67 77
130 144 141 150 15 8 24 3 53 -31 l35 -41 39 43 c21 23 38 47 38 53 0 11 -160
83 -204 92 -24 5 -30 -3 -83 -98z"/>
<path d="M3887 4248 c-26 -28 -52 -59 -56 -67 -6 -11 7 -43 45 -106 85 -144
66 -134 166 -86 48 22 89 41 92 41 2 0 16 4 31 10 21 8 24 13 16 27 -28 53
-210 233 -235 233 -5 0 -32 -23 -59 -52z"/>
<path d="M2410 4177 c-171 -116 -183 -126 -164 -133 10 -4 57 -22 104 -41 132
-53 120 -55 119 18 -1 35 -4 92 -8 125 l-6 62 -45 -31z"/>
<path d="M3740 4031 l-30 -59 52 -39 c28 -21 58 -44 67 -50 14 -10 21 -10 39
3 21 14 21 16 6 47 -34 68 -89 157 -96 157 -4 0 -21 -27 -38 -59z"/>
<path d="M6477 3973 c-25 -49 -60 -124 -77 -168 -30 -76 -80 -246 -80 -273 0
-7 24 4 58 26 74 51 122 74 205 101 37 13 67 24 67 25 0 1 -15 47 -33 102 -19
54 -42 138 -52 187 -11 53 -23 87 -31 87 -6 0 -32 -39 -57 -87z"/>
<path d="M6745 3892 c468 -460 698 -672 942 -865 l122 -97 60 42 c52 37 60 47
56 68 -10 51 -125 267 -183 345 -214 287 -605 532 -1021 641 -51 13 -103 24
-115 24 -16 0 19 -40 139 -158z"/>
<path d="M1998 3883 c-239 -180 -558 -457 -558 -484 0 -5 8 -9 18 -9 44 -1
273 -88 427 -164 249 -122 469 -274 717 -496 l57 -51 19 65 20 65 -34 108
c-78 245 -134 503 -166 771 l-23 184 -35 18 c-51 25 -166 70 -232 91 l-58 17
-152 -115z"/>
<path d="M4210 3901 c-45 -14 -174 -74 -188 -86 -2 -2 13 -49 35 -104 l38
-101 35 0 c19 0 67 -7 105 -16 39 -8 83 -18 99 -21 l29 -6 -7 68 c-7 71 -56
239 -78 267 -12 15 -17 15 -68 -1z"/>
<path d="M3432 3223 c-45 -251 -80 -459 -77 -461 12 -12 127 71 206 148 146
143 227 289 237 427 4 65 2 79 -24 130 -46 95 -183 213 -247 213 -10 0 -36
-126 -95 -457z"/>
<path d="M6657 3505 c-125 -46 -358 -199 -365 -240 -2 -10 -1 -60 3 -112 l7
-93 22 17 c172 136 281 201 421 252 l73 27 -46 81 c-27 47 -53 82 -62 82 -8 0
-32 -7 -53 -14z"/>
<path d="M4150 3453 c0 -4 14 -62 30 -128 16 -66 30 -129 30 -140 1 -27 47
-82 58 -70 23 26 78 201 84 264 3 34 2 35 -52 52 -69 21 -150 33 -150 22z"/>
<path d="M1246 3200 c-99 -118 -156 -194 -156 -208 0 -7 10 -12 21 -12 87 0
411 -96 586 -173 347 -153 660 -435 844 -762 l34 -60 6 140 c4 77 9 167 13
200 l7 60 -91 107 c-254 300 -538 533 -817 673 -111 55 -305 125 -347 125 -18
0 -43 -22 -100 -90z"/>
<path d="M9730 3246 c-12 -47 -76 -264 -84 -286 -5 -13 13 -15 121 -17 139 -2
264 -23 392 -67 41 -14 76 -26 78 -26 2 0 2 66 1 146 l-3 147 -75 29 c-92 35
-217 72 -332 97 l-88 19 -10 -42z"/>
<path d="M6830 3166 c-41 -12 -102 -35 -135 -50 -79 -36 -236 -142 -308 -208
l-57 -53 21 -80 c11 -44 23 -82 25 -84 2 -2 34 26 71 63 82 82 207 167 311
212 64 28 179 60 291 81 22 4 19 8 -40 71 -35 37 -73 68 -84 69 -11 1 -54 -8
-95 -21z"/>
<path d="M3977 3047 l-46 -92 8 -125 7 -125 100 101 c123 125 133 142 111 189
-18 38 -90 121 -118 135 -14 8 -24 -5 -62 -83z"/>
<path d="M7099 2880 c-147 -25 -325 -97 -450 -180 -94 -63 -209 -162 -209
-179 0 -8 16 -50 36 -92 l37 -78 96 98 c100 101 224 191 324 235 146 64 332
102 465 94 34 -1 62 0 62 5 0 4 -4 7 -8 7 -5 0 -46 23 -92 50 -79 47 -87 50
-149 49 -36 -1 -87 -5 -112 -9z"/>
<path d="M952 2773 c-28 -54 -64 -133 -81 -175 -33 -84 -74 -233 -69 -254 2
-9 25 1 72 31 65 42 209 105 240 105 12 0 9 17 -14 85 -24 71 -56 191 -76 283
-2 12 -8 22 -13 22 -5 0 -32 -44 -59 -97z"/>
<path d="M1070 2853 c0 -19 705 -698 881 -849 127 -109 323 -264 333 -264 4 0
33 19 66 42 l59 41 -25 66 c-137 364 -480 678 -939 859 -106 42 -208 74 -290
92 -27 6 -58 13 -67 16 -10 3 -18 1 -18 -3z"/>
<path d="M3700 2685 c-79 -80 -210 -191 -266 -225 -23 -14 -26 -12 -67 28 -23
23 -45 42 -49 42 -3 0 -14 -53 -24 -117 l-17 -117 43 -39 c158 -140 702 -510
720 -490 9 10 60 163 60 181 0 7 -23 26 -51 43 -59 37 -52 49 28 49 l52 0 10
53 c30 141 42 233 48 352 l6 130 -71 -67 c-94 -89 -235 -196 -336 -258 -46
-27 -87 -50 -91 -50 -4 0 -44 31 -89 70 -140 121 -181 159 -176 162 3 2 46 19
95 37 130 48 245 111 257 140 5 14 8 55 6 93 l-3 69 -85 -86z"/>
<path d="M7245 2648 c-129 -15 -279 -73 -395 -151 -53 -36 -169 -146 -213
-201 l-31 -39 159 6 c152 7 435 33 631 58 l90 12 16 76 c9 42 28 107 43 145
15 37 23 72 19 76 -9 8 -202 31 -234 27 -8 0 -46 -5 -85 -9z"/>
<path d="M9861 2468 c-5 -13 -48 -115 -95 -227 -48 -112 -85 -205 -84 -207 2
-1 28 1 58 4 45 6 56 11 66 32 7 14 54 111 106 215 51 105 95 193 96 198 2 4
-28 7 -67 7 -65 0 -72 -2 -80 -22z"/>
<path d="M10104 2349 c-60 -107 -144 -282 -144 -299 0 -5 15 -10 33 -10 18 0
64 -9 102 -19 38 -11 70 -19 71 -18 0 1 17 34 37 74 l37 72 0 140 0 139 -31
11 c-18 6 -36 11 -40 11 -4 0 -33 -46 -65 -101z"/>
<path d="M1108 2296 c-105 -46 -180 -89 -265 -153 l-73 -55 0 -96 c0 -131 5
-136 72 -80 111 94 273 187 391 224 31 10 57 20 57 24 0 11 -92 170 -99 170
-3 0 -41 -15 -83 -34z"/>
<path d="M6630 2182 c0 -14 117 -146 172 -193 126 -108 221 -163 428 -246 164
-66 336 -112 450 -120 l85 -6 -67 71 c-88 94 -146 195 -185 325 l-8 27 -220 4
c-178 3 -237 7 -310 24 -108 25 -216 61 -285 96 -57 29 -60 30 -60 18z"/>
<path d="M1270 1957 c-145 -50 -279 -131 -409 -249 -58 -53 -58 -48 -24 -166
l15 -53 77 74 c159 152 333 241 546 278 36 6 65 15 63 19 -2 5 -29 36 -61 69
-70 73 -75 73 -207 28z"/>
<path d="M3429 1929 c-60 -6 -169 -38 -169 -48 1 -5 182 -95 219 -109 4 -1 13
24 19 55 6 32 14 68 17 79 8 27 -11 32 -86 23z"/>
<path d="M1630 1689 c-227 -22 -521 -162 -678 -322 l-44 -44 41 -82 c23 -44
42 -81 44 -81 1 0 54 51 118 113 212 207 408 293 692 304 l138 6 -100 58 c-55
33 -106 58 -113 58 -7 -1 -51 -5 -98 -10z"/>
<path d="M3777 1590 c-20 -4 -40 -9 -42 -12 -3 -3 24 -44 60 -92 36 -48 65
-91 65 -96 0 -43 62 62 111 188 8 22 8 22 -74 21 -45 -1 -99 -5 -120 -9z"/>
<path d="M1683 1446 c-205 -39 -375 -134 -523 -293 -38 -41 -70 -79 -70 -84 0
-13 81 -11 297 6 191 15 535 52 564 61 11 3 19 21 23 55 4 27 20 87 37 132 17
45 32 89 35 98 4 12 -4 18 -33 23 -81 14 -258 15 -330 2z"/>
<path d="M1112 973 c159 -189 251 -265 428 -354 221 -110 519 -199 668 -199
l34 0 -69 74 c-81 88 -134 173 -168 276 l-25 75 -197 0 c-258 1 -416 30 -592
111 -83 38 -101 42 -79 17z"/>
</g>
</svg>
