<?xml version="1.0" encoding="utf-8"?>
<!-- Generator: Adobe Illustrator 22.1.0, SVG Export Plug-In . SVG Version: 6.00 Build 0)  -->
<svg version="1.1" id="Layer_1" xmlns="http://www.w3.org/2000/svg" xmlns:xlink="http://www.w3.org/1999/xlink" x="0px" y="0px"
	 viewBox="0 0 966.7 857.2" style="enable-background:new 0 0 966.7 857.2;" xml:space="preserve">
<style type="text/css">
	.st0{fill:#010101;}
	.st1{fill:#FFFFFF;}
</style>
<path class="st0" d="M533.1,157.5c0.5-3.9,1.1-7.8,1.6-11.7h0.8v0.8c5.1,7.7,4.5,20,7.2,30c6.5,24.4,7.8,53,8,84.1h-0.8
	c-4.2-2.9-11-1.2-16.8-2.5c-12.7-2.8-28-2.5-43.2-2.5c-38.2,0-81.5,8.8-109.5,20.8c-10.2,4.4-20.3,11.1-31.2,14.2
	c-4-11.1-8-22.2-12-33.3c-7-21.9-10.5-45.6-13.6-70.8h0.8c2.2,3,11.2-3,14.4-5c10.9-7.1,23.6-16.9,31.2-27.5
	c7.5-10.6,13.9-23,17.6-37.5c7.9-31.3-10.2-82.9-24-96.6c11.2-18.3,44.8-25.3,68.8-15.8c5.7,2.3,14.2,3.7,16.8,9.2
	c-6.4,9.4-8,45.8-4.8,60c1.4,6,0.7,10.4,2.4,15.8c9.3,29.8,28.4,47.4,55.2,59.1C510.8,152.2,521.2,157,533.1,157.5"/>
<path class="st0" d="M462.7,22.5c4.1,1.4,16.7,13.7,17.6,18.3c-6.8,3.8-9.4,18.1-6.4,29.2c4.4,16.2,13.3,32,26.4,39.1
	c2.5,1.4,8.4,4,12,3.3c2.6-0.5,9.5-4.5,9.6-4.2c4.7,5.6,10.1,24.1,12,32.5h-2.4c-3.5-2.4-8.5-1.9-12.8-3.3
	c-8.6-2.9-18.2-6.9-25.6-11.7c-14.1-9.2-25.7-24.5-31.2-42.5c-2-6.5-0.9-11.8-2.4-19.2c-0.7-3.4-1.8-11.1-0.8-15.8
	C460,39.8,461.4,31.2,462.7,22.5"/>
<path class="st0" d="M351.6,33.4c6,2.6,10.8,18.9,13.6,25.8c2.2,5.5,4.8,12.8,6.4,19.2c11.5,45.8-22.5,79.6-48.8,92.5v-1.7
	c-2.2-3.4-1-33.4,0.8-35.8c6.2,6.2,16.1,0.6,20-3.3c8.1-8.1,20.5-30.5,16-50.8c-2-8.7-5.1-19-12.8-21.7c-2.7-0.9-6.1,0.3-8-0.8
	C343,51.9,348.6,39.3,351.6,33.4"/>
<path class="st0" d="M920,164.1c0.6,0.9,0.3,0.2,0.8,1.7H920V164.1z"/>
<path class="st0" d="M800.9,199.1c8.9,1.2,24.3,0.7,32,3.3c64.1,21.8,91,98.9,111.9,166.6c3.4,11.1,3.5,24.3,5.6,34.1
	c3.6,17,7.9,39.2,7.2,51.7c-0.3,5.3,4.8,17.2,2.4,22.5c-0.5,1.5-0.2,0.8-0.8,1.7c-2-1.8-4.4-1.1-7.2-2.5c-5.4-2.7-11.6-5.7-16.8-9.2
	c-17-11.2-33.4-31.4-40-53.3h1.6c8.8,8.3,32.5-5.2,32-19.2c-0.6-16.4-5.1-15.9-12.8-25.8c-3.1,0-13.1-3.7-19.2-0.8
	c-18.4,8.5-16.3,26.8-8.8,44.2c0.3,1.9,0.5,3.9,0.8,5.8c15.5,27.4,28.9,56.3,49.6,78.3c3.8,4.1,25.1,23.1,25.6,26.7
	c3.9,7.2-0.6,26.4,1.6,40.8c3.7,23.5-2.5,86.7-11.2,109.1c-4.8,12.4-9.6,32.5-21.6,36.6v-0.8c2.3-4.4-0.5-12.3-1.6-18.3
	c1.9-3.6-2.8-13.6-4-17.5c-5.9-18.4-12.1-33.1-20-48.3c-25.8-49.6-55.4-92.7-85.5-137.4c-14.6-21.6-37.3-47.3-35.2-75.8
	c0.3,0.3,0.5,0.6,0.8,0.8c8.1-1.2,21.9,4.7,28.8,8.3c3.3,1.7,10.4,3.2,15.2,5.8c21.6,12.1,49.6,39.4,55.2,67.5h-3.2
	c-12.1-7.5-32.1,15.1-24.8,34.1c7.2,18.7,37.3,17.2,44-0.8c5-13.5-4.4-34.5-11.2-47.5c-17.4-33.3-36.2-64.2-61.6-89.1
	c-6.5-6.4-13.6-13.6-20.8-19.2c-4-3.1-10.4-4.4-11.2-10.8c3.6-5.3,1.7-16.3,2.4-20c3.9-22.2-12.3-34.6-32.8-40c-4-1-7.2,0.4-9.6,0
	c-3-0.5-11.5-0.5-16.8,1.7c-17.3,7.1-27.2,27.2-31.2,48.3h-0.8v-0.8c-3.2-2.3-4.7-6-7.2-9.2c-1.9-2.4-5.1-3.6-7.2-5.8
	c-6.2-6.4-11.6-14.3-18.4-20c-6-5-21.7-13.4-24.8-20c7.1-6.9,11.9-16.6,18.4-24.2c14-16.5,36.1-34.9,55.2-45.8
	c14.4-8.2,32.2-16,48.8-20.8C780.2,202.2,796.5,202.1,800.9,199.1"/>
<path class="st0" d="M780.9,857.2H265.2v-5h-2.4c-2.5-13-11.5-24.1-13.6-38.3c9.1-6.2,15.5-15.8,24-22.5c10.7-8.4,21.5-18.8,29.6-30
	c4.3-4.2,8.5-8.3,12.8-12.5c8.2-11.3,18.4-21.1,26.4-32.5c28.9-41,50.2-80.6,67.2-134.9c9-28.7,11.8-90.7,3.2-122.5
	c-9.3-34.2-19.8-64.1-36-90.8c-6.9-11.3-15.5-21.8-23.2-32.5c-3.3-4.5-8.4-6.4-10.4-12.5c7.6-2.4,14.7-8.8,21.6-12.5
	c15.7-8.4,45.3-20.7,65.6-22.5c0.3,0.3,0.5,0.6,0.8,0.8c0,13.9,2.8,29.2,5.6,41.6c4.1,18.2,3.3,37,7.2,54.2
	c0.5,6.1,1.1,12.2,1.6,18.3c4.8,20.8,4.8,44.9,9.6,65.8c0.5,6.1,1.1,12.2,1.6,18.3c3.7,16.8,4.2,36.5,8,53.3
	c0.8,3.6,1.9,18.6,1.6,19.2c-1.7,5.5-6.8,9.6-9.6,14.2c-7.5,12.4-14.3,27.1-20,40.8c-12.1,29.2-19.3,61.4-28,94.1
	c-2.1,13.3-4.3,26.7-6.4,40c-0.3,7.5-0.5,15-0.8,22.5c0,28,6,40.4,25.6,47.5c4.7,1.7,14.9,2.8,20.8,0.8
	c12.9-4.4,22.2-14.8,25.6-29.2c6.3-26.8-21.1-51.8-45.6-44.1c-6.4,2-11.1,6.6-16,10v-11.7c1.8-3.2,0.6-8.4,1.6-12.5
	c1.9-8.3,3.7-16.7,5.6-25c9-27.9,33.6-68.7,56.8-80.8c9.9,75.2,19.7,150.5,29.6,225.7h42.4v-1.7c-2.6-4.5-1.1-11.6-2.4-17.5
	c-3.5-15.4-2.7-32.1-6.4-48.3c-4.3-19-3.5-40-8-60c-4.8-34.7-9.6-69.4-14.4-104.1c11.7,1.8,22.7,10.8,31.2,16.7
	c26.2,18.2,44.3,40.6,57.6,72.5c2.2,5.3,5.5,10.6,6.4,17.5h-1.6c-4.2-4.2-17.8-5.9-25.6-3.3c-12.1,3.9-31.2,21.2-26.4,41.6
	c3.3,13.8,10.1,25,21.6,30c16.1,7,36.1-0.6,43.2-10.8c13-18.8,4.5-47.7-3.2-66.6c-20.6-50.6-49.5-92.4-79.2-133.3
	c-7.2-7.5-14.4-15-21.6-22.5c-4.1-3.2-10.4-5.1-11.2-11.7c-3.6-6.2-1.4-16.3-3.2-24.2c-4.3-19-3.5-40.1-8-60
	c-5.1-22.8-5.2-48.8-10.4-71.6c-0.5-6.1-1.1-12.2-1.6-18.3c-3.9-17.2-3.1-36-7.2-54.1c-2.8-12.4-5.1-27.1-5.6-40.8
	c38.4-3.3,80.2-0.1,107.9,11.7c-2.4,9.7-11.2,24-15.2,34.1c-7,17.7-9.7,37.5-14.4,57.5c-5.9,24.8-3.3,69.8,2.4,91.6
	c2.3,8.7,2.2,16,4.8,24.1c9.8,30.6,22.9,58.4,39.2,82.5c7,10.4,16.7,19.2,24,29.2c5.8,8,17.3,21.6,24.8,27.5
	c14.9,11.7,28.6,25.4,44,36.6c21.7,16,45.7,28.7,68.8,43.3c9.3,5.9,20,9.8,29.6,15c3.2,1.4,6.4,2.8,9.6,4.2v17.5
	c-3.4,5.9-1.4,21.3-3.2,29.2c-2.1,13.6-4.3,27.2-6.4,40.8C784.8,836.1,781.1,846.1,780.9,857.2"/>
<path class="st0" d="M120.5,304.1c50-1.2,90,15.7,120.7,35.8c8.6,5.7,16.3,13.4,24.8,19.2c-0.3,0.3-0.5,0.6-0.8,0.8
	c-8.2,13.7-19.6,25.9-28,40c-5.1,8.5-7.8,21.2-14.4,28.3v-0.8c-3.5-3.1-4.5-8.5-7.2-12.5c-4.7-6.9-12.2-14.7-19.2-19.2
	c-22.9-14.5-58.8,4.2-64.7,23.3c-3.8,12.2,1.3,27.4,4.8,35.8c1.3,3.1,5.1,6.9,4,10c-1.7,5.1-6.8,8.4-9.6,12.5
	c-6.3,9.3-11.9,19.5-17.6,29.2c-16.5,28.3-26.5,64.8-35.2,100.8c-5.9,24.3,1.2,62.6,29.6,51.6c7.3-2.8,9.5-8.9,14.4-14.2
	c2.6-28.3-10.8-36.8-34.4-30v-7.5c3.4-5.9,4.2-21.9,7.2-29.2c9.6-23.6,25.5-42.1,44.8-55.8c3.1-2.2,21.6-15.9,24-14.2
	c4.2,4.6,5.4,18.2,3.2,26.6c-5.3,20.8-11.2,40.6-18.4,60c-13.7,37.1-26.7,75.4-39.2,114.1c-4.5,14.1-5.6,27.5-9.6,42.5
	c-5.9,21.9-10.7,60.8-2.4,84.1h-2.4c-6.2-6.3-14.7-9.4-20-16.7C52.6,788,42.4,750.2,30.2,708.1c-4.2-14.5-9.7-31.4-10.4-48.3
	c7.5-5.4,10.4-15.9,15.2-24.2c14.7-25.2,22.6-56.5,30.4-89.1c5.4-22.9,2.6-42.1-14.4-48.3c-2.3-0.9-6.3-2.7-10.4-1.7
	c-9.4,2.5-16.7,8.7-19.2,18.3c-4.3,16.6,11.8,34.1,27.2,30c4.2-1.1,7.9-3.8,11.2-5.8v3.3c-1.5,2.6-0.7,6.5-1.6,10
	c-1.9,6.7-3.7,13.3-5.6,20c-8.1,19.9-22.7,37.9-40,48.3c-2.1-14.2-4.3-28.3-6.4-42.5c-3.1-14.2-2-29-4.8-42.5v-15.8
	c-2.7-13.4-1.1-40.7,1.6-53.3C5.4,455,3.6,444.9,6.2,434c10.3-42.8,21.2-85.7,50.4-108.3c11.1-8.6,23.9-15,39.2-19.2
	C101.5,305,116.2,306.9,120.5,304.1"/>
<path class="st0" d="M609.8,304.9c7.2,2.7,24,8.7,24,18.3c-4,6.5-1.1,25.3-2.4,35c-3.1,22.1-0.4,61.1,4,80c0.5,5,1.1,10,1.6,15
	c4.6,18.7,7.7,37.9,14.4,55c26.4,67,71.1,117.3,145.5,134.1v60.8h-0.8c-6.8-6.4-17.6-8.2-25.6-13.3c-13.6-8.6-28-16.1-41.6-25
	c-62.9-41.4-112.2-91.5-139.9-169.9c-10.6-30.1-15.4-83.8-5.6-119.9C590.5,349,598.2,325.5,609.8,304.9"/>
<path class="st0" d="M793.7,607.3c-23.4-3.3-44.3-20.4-60-32.5c-32.9-25.5-50.7-66.5-63.2-113.3c-4.8-17.9-4-37.6-8-56.6v-15.8
	c-3.3-15.8,0.6-35.1,0.8-50.8h0.8c11,14.4,32.2,17.1,32,43.3c1.6,2.8,0,7.8,0.8,11.7c1.6,11.7,3.2,23.3,4.8,35
	c7.8,30,16.1,56.4,31.2,78.3c7.7,11.2,19.7,21.9,31.2,29.2c5,3.2,18,4.8,19.2,11.7c3.1,5,2.4,12.8,4,19.2
	C790.4,578.7,793.3,593,793.7,607.3"/>
<path class="st0" d="M315.6,343.2c10.9,7.7,18.8,21.2,26.4,32.5c15.4,22.9,27.4,47.6,36.8,77.5c3.6,11.4,2.9,22.3,5.6,35
	c2.9,13.6,3.2,41.9,0,55.8c-2.1,10.8-4.3,21.7-6.4,32.5c-15,47.6-36.1,84.7-61.6,120.8c-9.1,12.9-22,23.2-31.2,35.8
	c-7.2,9.9-16,19.2-25.6,26.7c-7.7,6.1-13.3,15.2-21.6,20.8c-0.5-8.4-4.2-17-6.4-24.2c-2.7-13.3-5.3-26.7-8-40
	c44.3-23.1,78-65.3,94.3-117.5c4.5-14.3,4.6-27.9,8-44.2c4.6-22,3.9-56.1-0.8-77.5c-0.3-4.2-0.5-8.3-0.8-12.5
	c-4.6-19.9-6.9-40.4-12.8-59.1c-4.7-14.8-11.4-29.5-15.2-44.2C300,359.2,313.3,346.7,315.6,343.2"/>
<path class="st0" d="M712.9,389.1c8.2,8.4,13.6,19.5,20,30c12.6,20.9,23.9,43.9,33.6,68.3c3.7,11.9,7.5,23.9,11.2,35.8h-1.6
	c-2.8-3-7-4.2-10.4-6.7c-6-4.4-13.2-11.4-17.6-17.5C727.6,470.5,718.2,434,712.9,389.1"/>
<path class="st0" d="M272.4,389.9c7.8,9.3,12,41.7,16,56.6c3.2,12,4.3,26.9,7.2,40c3.5,15.7,2.5,51.4-0.8,65.8
	c-3.2,14.1-3.2,25.9-7.2,38.3c-11.9,36.7-38.3,74.6-69.6,90.8c-1.2-20.8-4.6-40.9-4.8-64.2c21.6-14.5,33-40.1,40.8-69.1
	c2.1-7.8,0.6-14.8,2.4-23.3c1.5-7,2.5-27.6,0.8-35.8c-1.3-11.1-2.7-22.2-4-33.3c-1.6-6.6-5.6-16.8-5.6-23.3c0-3.1,5.7-9.9,7.2-12.5
	c3.2-5.4,4.8-10.5,8-15.8C265.7,399.4,270.5,395.5,272.4,389.9"/>
<path class="st0" d="M236.4,458.2c5,7.8,1.9,21.9,4,32.5c7.4,37.3-9.5,92.1-28,105V594c1.1-15.8,2.1-31.6,3.2-47.5
	c4.2-18.9,4.9-38.2,10.4-55.8C229.5,479.8,233,469,236.4,458.2"/>
<path class="st0" d="M802.5,204.1c-4.4,2.9-14.8,2.2-20.8,5.8c-10.1,6-20.8,16.1-24.8,28.3c-4.4,13.3-0.1,27.5,6.4,37.5
	c19.2,29.7,63.7,44.5,95.9,21.7c10.6-7.5,23.8-26.8,17.6-48.3c-3.8-13.2-13.4-23.6-22.4-31.6c-8.3-7.4-22.7-10.6-35.2-13.3
	C815.8,203.4,806.2,204.7,802.5,204.1"/>
<path class="st0" d="M100.5,311.6c-3.3,2.1-8.7,1.2-12.8,2.5c-7.3,2.3-15.5,5.8-21.6,10c-12.1,8.4-23.4,22.3-28,38.3
	c-7.2,25.2,8.2,46.4,24,53.3c38.7,16.9,78.9-14.1,89.5-40.8C167.3,335.9,135.8,311.1,100.5,311.6"/>
<path class="st1" d="M803.3,219.1c25.6,1.1,44.3,7.4,56,25c7.5,11.3,3.3,30-4,37.5c-13.7,14.1-43.8,14.6-62.4,4.2
	c-4.7-2.7-8.2-7.2-12-10.8c-8.6-8.2-15.3-23.7-8-37.5c4.1-7.8,13.9-12.5,21.6-16.7C798.1,218.9,799.9,221.4,803.3,219.1"/>
<path class="st0" d="M801.7,224.1c-3.1,2.1-7.5,1.5-11.2,3.3c-6.3,3.2-11.9,9.6-14.4,16.7c-7.8,22.5,24.1,45.5,47.2,34.1
	c16.3-8,19-31.5,5.6-45C821.3,225.7,810.4,227,801.7,224.1"/>
<path class="st1" d="M104.5,325.7c23.1,0.5,44.9,17.1,34.4,43.3c-8.3,20.6-45.6,49.6-74.4,31.6c-31.3-19.6-3.1-59.7,17.6-69.1
	c5.1-1.7,10.1-3.3,15.2-5C100,325.9,102.8,326.9,104.5,325.7"/>
<path class="st0" d="M101.3,331.6c-8,5.5-15.9,5.9-21.6,14.2c-11.7,17.1-2.7,38.1,14.4,42.5c24.9,6.4,50.2-23.7,37.6-45
	C126.1,333.9,116.5,331.2,101.3,331.6"/>
</svg>
