<?xml version="1.0" encoding="utf-8"?>
<!-- Generator: Adobe Illustrator 22.1.0, SVG Export Plug-In . SVG Version: 6.00 Build 0)  -->
<svg version="1.1" id="Layer_1" xmlns="http://www.w3.org/2000/svg" xmlns:xlink="http://www.w3.org/1999/xlink" x="0px" y="0px"
	 viewBox="0 0 144.1 144.1" style="enable-background:new 0 0 144.1 144.1;" xml:space="preserve">
<style type="text/css">
	.st0{fill:#4D91CE;}
</style>
<g>
	<g>
		<path class="st0" d="M67,25.5c-1.4-1.2-2.7-2.5-4.1-3.6c0.2,2.1,0.6,4.2,1,6.2C64.8,27.2,65.8,26.2,67,25.5z"/>
		<path class="st0" d="M69.8,27.7c-0.4-0.3-0.7-0.5-1.1-0.8c-0.3-0.2-0.5-0.4-0.8-0.7c0,0.1-0.1,0.2-0.2,0.2c-1.3,0.9-2.4,2-3.5,3.1
			c0.1,0.5,0.3,1.1,0.4,1.6C66.3,29.9,68,28.7,69.8,27.7z"/>
		<path class="st0" d="M72.7,29.7c-0.6-0.4-1.2-0.8-1.9-1.2c0,0,0,0-0.1,0.1c-2.1,1.1-4,2.6-5.9,4c0.3,1.1,0.5,2.2,0.8,3.3
			C68,33.8,70.4,31.7,72.7,29.7z"/>
		<path class="st0" d="M69.8,38.3c2.2-1.6,4.3-3.3,6.6-4.7c0.1-0.4,0.2-0.8,0.2-1.2c-0.9-0.7-1.9-1.3-2.8-2c0,0,0,0,0,0
			c-2.6,2.2-5.2,4.5-7.8,6.8c0.1,0.5,0.2,1.1,0.3,1.6c1.1-0.2,2.2-0.3,3.4-0.4C69.7,38.4,69.7,38.3,69.8,38.3z"/>
		<path class="st0" d="M71.8,38.4c1.2,0,2.4,0,3.6,0.1c0.3-1.1,0.5-2.1,0.7-3.2C74.6,36.3,73.2,37.3,71.8,38.4z"/>
		<path class="st0" d="M77.6,23.2c0-0.8,0.1-1.6,0.1-2.4c-0.9-0.1-1.7-0.2-2.6-0.2C75.9,21.5,76.7,22.4,77.6,23.2z"/>
		<path class="st0" d="M73.2,20.6c-0.4,0-0.7,0-1.1,0c-0.8,0-1.6,0-2.4,0.1c2.7,2.1,4.7,5.1,7.5,7c0.1-0.9,0.1-1.8,0.2-2.6
			C76,23.5,74.7,22,73.2,20.6z"/>
		<path class="st0" d="M67.6,20.8c-1.2,0.1-2.4,0.3-3.6,0.5c2.1,1.7,4,3.6,6.2,5.2c2.2,1.6,4.5,3,6.7,4.6c0.1-0.7,0.2-1.4,0.3-2.1
			C73.4,26.8,71.4,22.8,67.6,20.8z"/>
		<path class="st0" d="M47.1,29.8c-0.4-0.7-0.7-1.5-1-2.2c-0.9,0.5-1.8,1.1-2.7,1.7C44.6,29.5,45.9,29.6,47.1,29.8z"/>
		<path class="st0" d="M42,30.2c-0.9,0.7-1.8,1.3-2.7,2.1c3.1,0.1,6.2,0.2,9.4,0.4c-0.3-0.5-0.6-1-0.9-1.5
			C45.9,30.8,43.9,30.7,42,30.2z"/>
		<path class="st0" d="M37.9,33.5c-0.8,0.7-1.6,1.5-2.4,2.3c5.1,0.3,10.3-0.2,15.4,0.4c-0.5-0.7-0.9-1.5-1.4-2.2
			C45.6,33.7,41.7,33.6,37.9,33.5z"/>
		<path class="st0" d="M38.8,37.2c-1.3,0-2.6,0-3.8-0.1c1.3,1.3,2.5,2.5,3.8,3.7V37.2z"/>
		<path class="st0" d="M43,37.1c-1,0-2,0-3,0v4.7c1,1,2.1,1.9,3.2,2.8C43.1,42.2,43,39.7,43,37.1z"/>
		<path class="st0" d="M52,45c0.1-2.2,0.2-4.4,0.2-6.6c-0.2-0.3-0.3-0.5-0.5-0.8c0,0-0.1,0-0.1,0c-0.8-0.1-1.5-0.2-2.3-0.2
			c0,3.3,0.1,6.6,0,9.9C50.1,46.4,51,45.7,52,45z"/>
		<path class="st0" d="M53.2,44.1c0.6-0.4,1.1-0.8,1.7-1.1c-0.5-0.9-1-1.8-1.6-2.7C53.3,41.5,53.3,42.8,53.2,44.1z"/>
		<path class="st0" d="M48,37.2c-1.3-0.1-2.5-0.1-3.8-0.1c0,2.9,0.2,5.8,0.2,8.7c1.1,1,2.2,1.9,3.2,2.9c0.1-0.1,0.2-0.2,0.2-0.2
			C48.1,44.8,48,41,48,37.2z"/>
		<path class="st0" d="M35.8,39.7c-0.7-0.7-1.4-1.4-2.1-2.1c-0.8,0.9-1.6,1.8-2.3,2.7C32.9,40.2,34.4,40,35.8,39.7z"/>
		<path class="st0" d="M30.4,41.7c-0.4,0.5-0.7,1-1.1,1.5c-0.3,0.5-0.6,1-0.9,1.5c3.5-0.5,7-1.3,10.4-2.1c-0.6-0.6-1.3-1.2-1.9-1.8
			C34.8,41.1,32.6,41.6,30.4,41.7z"/>
		<path class="st0" d="M39.6,45.7c0.7-0.2,1.4-0.4,2.2-0.6c-0.6-0.5-1.2-1.1-1.8-1.6c-4.1,1-8.2,2-12.4,2.5
			c-0.4,0.7-0.8,1.5-1.2,2.2c4.4-0.5,8.8-1.4,13.1-2.5C39.5,45.8,39.5,45.7,39.6,45.7z"/>
		<path class="st0" d="M31.3,48.9c0,0,0-0.1,0-0.1c-1.9,0.3-3.7,0.6-5.6,0.8c0,0,0,0,0,0.1c2.4,0.5,4.5,1.5,6.6,2.7
			C32,51.2,31.7,50.1,31.3,48.9z"/>
		<path class="st0" d="M35.5,48c-1,0.2-1.9,0.4-2.9,0.6c0.5,1.5,0.9,3,1.2,4.6c1.2,0.7,2.3,1.3,3.5,2C36.6,52.8,36,50.4,35.5,48z"/>
		<path class="st0" d="M46.9,49.7c-0.5-0.5-1-0.9-1.6-1.4c0.2,0.9,0.4,1.7,0.6,2.6C46.2,50.5,46.5,50.1,46.9,49.7z"/>
		<path class="st0" d="M43.7,46.9c-0.3-0.3-0.6-0.5-0.9-0.8c-0.8,0.2-1.6,0.4-2.4,0.7c0.4,3,1.3,6,2.1,8.9c0.7-1.2,1.4-2.4,2.2-3.5
			C44.6,50.5,44,48.7,43.7,46.9z"/>
		<path class="st0" d="M39.3,47.1c-0.9,0.2-1.7,0.4-2.6,0.6c0.6,2.7,1.4,5.4,2,8.1c1,0.4,1.9,0.8,3,1C40.8,53.6,39.8,50.4,39.3,47.1
			z"/>
		<path class="st0" d="M28.3,51.7c-1-0.4-2.1-0.7-3.2-0.9c-0.4,1-0.8,2-1.2,2.9C25.3,53.1,26.8,52.4,28.3,51.7z"/>
		<path class="st0" d="M23.3,55.6c-0.3,0.9-0.6,1.8-0.8,2.7c3-1.5,6-3.2,8.6-5.2c-0.4-0.2-0.8-0.4-1.2-0.6
			C27.7,53.5,25.4,54.4,23.3,55.6z"/>
		<path class="st0" d="M32.3,53.7c-3.1,2.5-6.7,4.4-10.3,6.2c-0.3,1.2-0.5,2.4-0.7,3.5c1-0.9,2-1.8,3.1-2.6c1.9-1.3,3.9-2.6,5.9-3.7
			c1.5-0.8,3-1.4,4.5-2C33.9,54.7,33.1,54.2,32.3,53.7z"/>
		<path class="st0" d="M24.3,62.7c0,0,0-0.1-0.1-0.1c-1.1,0.9-2,1.9-3.2,2.7c0,0,0,0.1,0,0.1c1.8,0.1,3.5,0.4,5.2,0.7
			C25.7,64.8,25.1,63.6,24.3,62.7z"/>
		<path class="st0" d="M27.8,60c-0.8,0.5-1.6,1-2.3,1.6c-0.1,0.1-0.2,0.2-0.3,0.2c1.2,1.3,1.9,2.9,2.5,4.5c1.1,0.2,2.2,0.5,3.3,0.7
			C29.9,64.7,28.7,62.4,27.8,60z"/>
		<path class="st0" d="M37.2,56.5c-0.4-0.2-0.7-0.4-1.1-0.6c-0.8,0.3-1.7,0.7-2.5,1c1.9,3.7,3.1,7.7,4.9,11.5c0,0,0.1,0,0.1,0
			c0.2-1.9,0.6-3.8,1.1-5.7C38.7,60.7,37.4,58.7,37.2,56.5z"/>
		<path class="st0" d="M40.2,61.1c0.3-1,0.7-2,1.2-3c-1-0.2-1.9-0.6-2.9-1C38.8,58.5,39.5,59.8,40.2,61.1z"/>
		<path class="st0" d="M32.5,57.5C32.4,57.5,32.4,57.4,32.5,57.5c-0.3,0-0.6,0.2-0.8,0.3c-0.9,0.5-1.9,1-2.8,1.6
			c0.1,0.1,0.1,0.1,0.2,0.2c1,2.6,2.3,5.2,3.5,7.7c1.5,0.3,3,0.6,4.5,0.9C35.4,64.7,34.2,61,32.5,57.5z"/>
		<path class="st0" d="M48.4,113.9c0.4,1.2,0.8,2.5,1.3,3.7c0.4-1.4,0.9-2.7,1.6-4C50.3,113.6,49.3,113.8,48.4,113.9z"/>
		<path class="st0" d="M52.1,99.2c-0.7-0.5-1.4-1.1-2.1-1.7c-0.8,0.7-1.5,1.5-2.3,2.3C49.2,99.5,50.7,99.3,52.1,99.2z"/>
		<path class="st0" d="M53.8,100.3c-2.5,0.2-5,0.5-7.4,1c0,0-0.1,0-0.1,0c-0.5,0.5-1.1,1.1-1.7,1.6c0.3,0.6,0.6,1.2,0.9,1.9
			c3.9-0.9,7.8-1.4,11.7-1.9c0.1-0.1,0.1-0.3,0.2-0.4C56.1,101.7,54.9,101,53.8,100.3z"/>
		<path class="st0" d="M45.9,105.9c0.3,0.9,0.6,1.8,0.9,2.7c2.6-0.2,5.1-0.6,7.7-1c0.7-1.2,1.4-2.3,2-3.5
			C52.9,104.6,49.4,105.1,45.9,105.9z"/>
		<path class="st0" d="M47.2,109.8c0.3,0.9,0.6,1.9,0.8,2.8c1.3-0.1,2.6-0.3,3.9-0.5c0.6-1.1,1.2-2.1,1.8-3.2
			C51.5,109.3,49.4,109.6,47.2,109.8z"/>
		<path class="st0" d="M45.5,116.1c0.9,0.6,1.9,1.1,2.9,1.6c-1.8-4.6-2.6-9.6-4.8-14c-0.4,0.3-0.8,0.7-1.2,1
			C43.6,108.5,44.7,112.3,45.5,116.1z"/>
		<path class="st0" d="M38.8,108.1c-0.5,0.6-1,1.2-1.5,1.8c0.7,0.6,1.4,1.2,2.1,1.8C39.1,110.6,38.9,109.4,38.8,108.1z"/>
		<path class="st0" d="M41.4,105.6c-0.5,0.4-1,0.9-1.5,1.4c0,0,0,0,0,0c0.3,2,0.6,4,1,6c0.8,0.6,1.6,1.2,2.4,1.7
			c0.3,0.2,0.5,0.3,0.8,0.5C43.3,112,42.3,108.8,41.4,105.6z"/>
		<path class="st0" d="M59.7,122c1.3,0.3,2.6,0.6,3.9,0.8c-1.3-1.7-2.9-3.1-4.1-4.9c-1.7-2.6-3.4-5.2-5.3-7.6
			c-0.4,0.7-0.8,1.4-1.2,2.1C55,115.9,57.5,118.9,59.7,122z"/>
		<path class="st0" d="M51.9,115.7c1,1.7,1.9,3.4,3.1,4.9c0.9,0.3,1.9,0.6,2.9,0.9c-1.9-2.5-3.8-5-5.4-7.7c-0.3,0.6-0.5,1.1-0.8,1.7
			C51.8,115.5,51.8,115.6,51.9,115.7z"/>
		<path class="st0" d="M51.2,116.9c-0.2,0.6-0.4,1.3-0.6,1.9c0.8,0.4,1.5,0.7,2.3,1C52.3,118.9,51.7,117.9,51.2,116.9z"/>
		<path class="st0" d="M61.2,103.9c-0.9-0.3-1.8-0.6-2.7-1c-0.4,0.8-0.8,1.7-1.2,2.5C58.6,104.9,59.9,104.4,61.2,103.9z"/>
		<path class="st0" d="M63.2,104.5c-0.1,0.1-0.2,0.1-0.3,0.2c-2.2,0.7-4.4,1.6-6.6,2.3c-0.4,0.8-0.9,1.5-1.3,2.2
			c0.4,0.5,0.7,1,1.1,1.5c0,0,0-0.1,0.1-0.1c3.4-2,7.7-2.6,10.7-5.3C65.6,105.1,64.4,104.8,63.2,104.5z"/>
		<path class="st0" d="M56.8,111.6c0.6,0.8,1.2,1.7,1.7,2.5c0.1-0.1,0.2-0.2,0.3-0.2c2.9-0.6,5.5-1.9,8-3.3c0.2-1.4,0.3-2.7,0.4-4.1
			C64.3,109,60.2,109.7,56.8,111.6z"/>
		<path class="st0" d="M59.2,115.1C59.2,115.1,59.2,115.1,59.2,115.1c0.3,0.5,0.6,0.9,0.9,1.4c0.4,0.6,0.8,1.2,1.3,1.7
			c0.1-0.1,0.2-0.2,0.3-0.2c1.4-0.4,2.9-0.9,4.3-1.4c0.3-1.5,0.5-2.9,0.7-4.4C64.3,113.4,61.9,114.6,59.2,115.1z"/>
		<path class="st0" d="M62.3,119.1c0.9,1,1.8,2,2.6,3.2c0.3-1.4,0.6-2.9,0.9-4.3C64.6,118.4,63.4,118.8,62.3,119.1z"/>
		<path class="st0" d="M79.7,116c-0.4-1.3-0.7-2.5-1-3.8c-1.7,1.5-3.4,3.1-5,4.6c1,0.8,1.9,1.5,2.9,2.3
			C77.7,118.1,78.7,117.1,79.7,116z"/>
		<path class="st0" d="M77.6,119.8c1.3,1,2.7,1.9,4.1,2.7c-0.5-1.7-1.1-3.4-1.6-5.2C79.3,118.3,78.5,119.1,77.6,119.8z"/>
		<path class="st0" d="M71,105.7c-0.8,0-1.6-0.1-2.4-0.2c0,1.1-0.1,2.1-0.2,3.2C69.4,107.9,70.2,106.8,71,105.7z"/>
		<path class="st0" d="M72.5,105.7c-1.2,1.8-2.5,3.5-4.3,4.7c-0.1,0.6-0.2,1.2-0.2,1.9c0.6,0.4,1.2,0.9,1.8,1.3c0,0,0,0,0,0
			c2.8-2.2,5.6-5.1,7.3-8.3C75.6,105.6,74,105.7,72.5,105.7z"/>
		<path class="st0" d="M70.8,114.5c0.7,0.5,1.3,1,1.9,1.6c1.9-1.8,3.8-3.5,5.7-5.2c-0.3-1.3-0.5-2.7-0.6-4.1
			C76,109.7,73.4,112.4,70.8,114.5z"/>
		<path class="st0" d="M77.5,123.2c0.8-0.1,1.6-0.2,2.4-0.3c-4.3-2.7-8-6.2-12.1-9.2c-0.1,0.9-0.3,1.8-0.5,2.8
			C71.2,117.9,74.3,120.7,77.5,123.2z"/>
		<path class="st0" d="M66.4,120.8c-0.2,0.8-0.3,1.6-0.5,2.4c1.5,0.2,3.1,0.3,4.7,0.3C69.2,122.6,67.9,121.7,66.4,120.8z"/>
		<path class="st0" d="M72.9,123.5c0.9,0,1.9-0.1,2.8-0.1c-2.7-2.2-5.4-4.4-8.6-5.6c-0.1,0.6-0.2,1.2-0.4,1.7
			C68.8,120.7,70.8,122.1,72.9,123.5z"/>
		<path class="st0" d="M96.5,116.8c-0.7-1.3-1.3-2.6-2-3.9c-0.3,1-0.5,2.1-0.9,3.1C94.6,116.2,95.5,116.5,96.5,116.8z"/>
		<path class="st0" d="M93.7,111.4C93.7,111.3,93.7,111.3,93.7,111.4c-0.5-1.2-1.1-2.3-1.7-3.4c-0.2,2.4-0.8,4.7-1.4,7
			c0.6,0.2,1.3,0.4,1.9,0.6C92.9,114.2,93.2,112.7,93.7,111.4z"/>
		<path class="st0" d="M90.8,106C90.8,105.9,90.8,105.9,90.8,106c-0.7-1.1-1.4-2.2-2.1-3.3c-0.4,3.7-1.1,7.4-2.3,11
			c1,0.3,1.9,0.6,2.9,0.8C90,111.7,90.7,108.9,90.8,106z"/>
		<path class="st0" d="M83.9,103.6c-1,3-1.8,6-3,8.9c1.4,0.2,2.9,0.6,4.3,0.9c1.2-3.7,2-7.5,2.3-11.4
			C86.3,102.6,85.1,103.1,83.9,103.6z"/>
		<path class="st0" d="M82.4,104.1c-0.4,0.1-0.7,0.2-1.1,0.3c-0.8,0.2-1.6,0.4-2.4,0.6c0.1,2.2,0.5,4.4,1,6.6
			C80.9,109.2,81.6,106.6,82.4,104.1z"/>
		<path class="st0" d="M93.7,118.7c0.6-0.3,1.3-0.6,1.9-0.9c-5.1-1.5-10-3.4-15.2-4.2c0.2,0.7,0.4,1.4,0.6,2.1
			C85.2,116.3,89.6,117.2,93.7,118.7z"/>
		<path class="st0" d="M82.2,119.8c0.3,0.8,0.5,1.7,0.8,2.5c1.5-0.3,3-0.7,4.5-1.2C85.7,120.6,84,120.1,82.2,119.8z"/>
		<path class="st0" d="M81.8,118.5c2.6,0.3,5.1,1.2,7.6,1.9c0,0,0,0,0,0c0.9-0.3,1.7-0.6,2.5-1c-3.5-1.2-7.1-1.9-10.7-2.4
			C81.5,117.5,81.6,118,81.8,118.5C81.8,118.5,81.8,118.5,81.8,118.5z"/>
		<path class="st0" d="M106.9,34.2c-1-0.9-1.9-1.7-3-2.5c0.3,1.7,0.7,3.3,1,5C105.7,35.9,106.3,35,106.9,34.2z"/>
		<path class="st0" d="M102.5,30.6c-0.6-0.4-1.1-0.8-1.7-1.2c-0.2-0.2-0.5-0.3-0.7-0.5c0.7,3.7,1.1,7.4,2,11c0.6-0.7,1.2-1.3,1.8-2
			C103.5,35.4,102.9,33,102.5,30.6z"/>
		<path class="st0" d="M98.6,28c-1.1-0.6-2.1-1.2-3.2-1.8c1.9,5.3,2.8,10.9,4,16.5c0.6-0.5,1.1-1.1,1.7-1.7
			C100,36.7,99.6,32.3,98.6,28z"/>
		<path class="st0" d="M95.5,30.9c-0.4-1.4-0.8-2.9-1.3-4.3c-0.6,1.4-1.3,2.7-2,4C93.3,30.7,94.4,30.8,95.5,30.9z"/>
		<path class="st0" d="M96.5,35.1c-0.2-1-0.4-2-0.7-3c-1.5-0.1-2.9-0.3-4.4-0.3c-0.7,1.3-1.4,2.6-2.1,3.9
			C91.8,35.4,94.1,35.2,96.5,35.1z"/>
		<path class="st0" d="M97.4,39.2c-0.2-1-0.4-1.9-0.6-2.9c-2.7,0.1-5.4,0.3-8.1,0.7c-0.6,1.2-1.1,2.4-1.6,3.6
			C90.5,40.1,94,39.7,97.4,39.2z"/>
		<path class="st0" d="M97.6,44.3c0.3-0.2,0.5-0.5,0.8-0.7c-0.2-1.1-0.5-2.1-0.7-3.2c-3.5,0.5-7,0.8-10.5,1.5
			c0.4,0.2,0.8,0.4,1.2,0.6c1,0.6,2,1.2,3,1.9C93.4,44.4,95.5,44.4,97.6,44.3z"/>
		<path class="st0" d="M93,45.7c0.5,0.4,1.1,0.9,1.6,1.3c0.5-0.4,1.1-0.9,1.6-1.4C95.1,45.6,94.1,45.7,93,45.7z"/>
		<path class="st0" d="M86.9,26.5C86,25,85.3,23.3,84.1,22c-1.3-0.3-2.5-0.6-3.8-0.8c3.2,4,6,8.2,8.8,12.4c0.4-0.7,0.8-1.4,1.1-2.1
			C89,29.9,87.8,28.3,86.9,26.5z"/>
		<path class="st0" d="M92.4,27.4c0.4-0.7,0.7-1.4,1-2.1c-0.9-0.4-1.8-0.8-2.7-1.1C91.3,25.2,91.9,26.3,92.4,27.4z"/>
		<path class="st0" d="M89.2,23.5c-1-0.4-2-0.7-3-1c0.6,0.9,1.1,1.9,1.6,2.8c0.9,1.8,2,3.4,3.2,5c0.3-0.5,0.6-1.1,0.8-1.6
			C90.8,27,89.9,25.3,89.2,23.5z"/>
		<path class="st0" d="M81.5,24.8c-0.8-1.1-1.7-2.3-2.6-3.4c0,1.4-0.1,2.9-0.2,4.3C79.6,25.4,80.6,25.1,81.5,24.8z"/>
		<path class="st0" d="M86.3,31.8c-0.5-0.7-1-1.5-1.5-2.2c-0.1,0-0.1,0.1-0.2,0.1c-2.3,0.9-4.6,1.7-6.8,2.7C77.6,34,77.3,35.5,77,37
			C80.1,35.2,83.4,33.9,86.3,31.8z"/>
		<path class="st0" d="M87.6,36.6c0.3-0.6,0.6-1.1,0.9-1.7c-0.5-0.7-0.9-1.4-1.4-2.1c-3.2,2.3-7,3.8-10.4,5.9c1.5,0.2,3,0.5,4.5,0.9
			C83.2,38.4,85.4,37.6,87.6,36.6z"/>
		<path class="st0" d="M82.8,40.1c1,0.3,1.9,0.7,2.8,1.1c0.3-1,0.7-1.9,1.1-2.9C85.4,38.9,84.1,39.4,82.8,40.1z"/>
		<path class="st0" d="M84.1,28.5c-0.6-0.9-1.2-1.8-1.8-2.6c-1.2,0.4-2.5,0.8-3.7,1.2c-0.1,1.3-0.3,2.6-0.5,3.8
			C80.1,30.1,82.1,29.3,84.1,28.5z"/>
		<path class="st0" d="M115.1,47.4c0.5-0.3,1.1-0.6,1.6-0.9c-0.5-0.8-0.9-1.6-1.4-2.3C115.3,45.3,115.2,46.3,115.1,47.4z"/>
		<path class="st0" d="M114.1,42.4c-0.6-0.8-1.1-1.6-1.7-2.3c0,3-0.2,6.1-0.4,9.1c0.6-0.4,1.2-0.7,1.9-1.1
			C114,46.2,114.1,44.3,114.1,42.4z"/>
		<path class="st0" d="M110.7,50c0.3-3.8,0.5-7.6,0.5-11.4c-0.8-0.9-1.6-1.8-2.4-2.6c0.6,5.1,0.3,10.3-0.4,15.4
			C109.1,50.9,109.9,50.4,110.7,50z"/>
		<path class="st0" d="M103.6,40.2c-0.9,1-1.8,1.9-2.7,2.8c2.3,0.5,4.6,0.7,7,0.6c0-0.9,0-1.9,0-2.8C106.4,40.7,105,40.4,103.6,40.2
			z"/>
		<path class="st0" d="M107.8,39.6c-0.1-1.3-0.2-2.7-0.3-4c-0.9,1.2-1.9,2.4-2.9,3.5C105.6,39.2,106.7,39.5,107.8,39.6z"/>
		<path class="st0" d="M99.8,44.1c-1.1,1.1-2.3,2.1-3.5,3.1c3.7-0.1,7.4-0.3,11.1,0c0.1,0,0.1,0,0.1,0c0.1-0.8,0.1-1.5,0.2-2.3
			C105.1,45,102.3,44.7,99.8,44.1z"/>
		<path class="st0" d="M99.4,52.4c0.7,0.9,1.3,1.9,1.9,2.9c1.6-0.8,3.1-1.6,4.6-2.5C103.7,52.7,101.5,52.5,99.4,52.4z"/>
		<path class="st0" d="M107,51.5C107,51.5,107,51.5,107,51.5c0.2-1,0.3-2.1,0.4-3.1c0,0,0,0,0,0c-3.8-0.3-7.6-0.1-11.4,0
			c0.8,0.8,1.6,1.7,2.3,2.6C101.2,51.3,104.1,51.5,107,51.5z"/>
		<path class="st0" d="M119,51c-0.4-0.9-0.8-1.7-1.2-2.6c-1,5.3-2.8,10.4-4.8,15.5c0.9-0.2,1.7-0.3,2.6-0.5
			C116.7,59.3,117.9,55.1,119,51z"/>
		<path class="st0" d="M121,56.1c-0.4-1.1-0.7-2.2-1.2-3.2c-0.9,3.4-1.9,6.9-2.8,10.3c0.6-0.1,1.1-0.2,1.7-0.3
			C119.4,60.6,120.1,58.3,121,56.1z"/>
		<path class="st0" d="M120.1,62.7c0.8-0.1,1.7-0.3,2.5-0.4c0,0,0,0,0-0.1c-0.3-1.4-0.6-2.8-1-4.1C121.1,59.6,120.6,61.1,120.1,62.7
			z"/>
		<path class="st0" d="M111.8,63.5C111.8,63.5,111.8,63.5,111.8,63.5c0.4-1,0.7-1.9,1.1-2.9c-3.6-1.3-7-3.1-10.8-3.7
			c0.5,1.1,1,2.2,1.4,3.3C106.3,61.5,108.9,62.8,111.8,63.5z"/>
		<path class="st0" d="M104.2,61.9c0.1,0.3,0.2,0.6,0.3,0.9c0.2,0.7,0.4,1.5,0.5,2.2c1.8-0.1,3.5-0.3,5.2-0.6
			C108.1,63.7,106.1,62.8,104.2,61.9z"/>
		<path class="st0" d="M113.1,50c0.9,0.4,1.9,0.8,2.8,1.2c0.3-1,0.5-2.1,0.7-3.1C115.4,48.7,114.2,49.4,113.1,50z"/>
		<path class="st0" d="M111.7,50.8c-1.3,0.7-2.5,1.5-3.8,2.2c2.1,1,4.4,1.8,6.7,2.3c0.3-0.9,0.6-1.9,0.8-2.9
			C114.2,52,113,51.4,111.7,50.8z"/>
		<path class="st0" d="M106.7,53.8c-1.2,0.7-2.5,1.4-3.7,2c3.6,0.7,6.9,2.4,10.4,3.6c0,0,0,0,0,0c0.3-1,0.7-2,1-2.9
			C111.7,55.9,109.1,55,106.7,53.8z"/>
		<path class="st0" d="M117.4,64.4c0.8,0.8,1.8,1.5,2.7,2c0.6-0.9,1.2-1.8,1.7-2.8C120.4,63.8,118.9,64.1,117.4,64.4z"/>
		<path class="st0" d="M116,64.6c-1.6,0.3-3.1,0.6-4.7,0.8c1.9,1.6,3.8,3.2,5.9,4.6c0.8-0.9,1.5-1.7,2.2-2.6
			C118.2,66.7,116.9,65.8,116,64.6z"/>
		<path class="st0" d="M110,65.9c-0.1-0.1-0.1-0.2-0.2-0.2c-1.3,0.2-2.7,0.4-4,0.5c2.8,2.3,5.8,4.5,8.7,6.5c0.1,0,0.1,0.1,0.1,0.1
			c0.6-0.6,1.2-1.2,1.7-1.8C114.2,69.4,112,67.7,110,65.9z"/>
		<path class="st0" d="M112.4,75.1c0.5-0.5,0.9-0.9,1.4-1.4c-2.9-2-5.7-4-8.4-6.3c0.2,1.1,0.2,2.2,0.3,3.3
			C107.9,72.2,110.1,73.8,112.4,75.1z"/>
		<path class="st0" d="M105.7,72.3c0,1,0,2.1-0.1,3.1c1.7,0,3.4,0,5.1,0.1C109,74.5,107.4,73.3,105.7,72.3z"/>
		<path class="st0" d="M115.7,75.9c2.5-2.9,5.4-5.5,7.6-8.6c-0.1-1-0.2-1.9-0.3-2.9c-2.3,4.3-5.8,7.9-9.3,11.3
			C114.3,75.7,115,75.8,115.7,75.9C115.7,75.9,115.7,75.9,115.7,75.9z"/>
		<path class="st0" d="M119.4,76.2l4.1-4.1c0-1,0-1.9-0.1-2.9c-1.9,2.5-4.2,4.6-6.3,7c0.7,0.1,1.4,0.2,2.1,0.3
			C119.2,76.4,119.2,76.3,119.4,76.2z"/>
		<path class="st0" d="M120.6,76.7c0.9,0.1,1.8,0.3,2.7,0.5c0.1-1.1,0.2-2.2,0.2-3.4L120.6,76.7z"/>
		<path class="st0" d="M103.9,82.8c-0.3,1-0.7,1.9-1.1,2.8c1.6,0.6,3,1.4,4.5,2.1C106.2,86.1,105.2,84.3,103.9,82.8z"/>
		<path class="st0" d="M104.5,81.5c1.8,2.1,3,4.6,4.8,6.7c0.6-0.3,1.2-0.6,1.8-1c0,0-0.1,0-0.1-0.1c-2.1-3-2.8-7.2-5.7-9.5
			C105,78.9,104.7,80.1,104.5,81.5C104.4,81.4,104.5,81.4,104.5,81.5z"/>
		<path class="st0" d="M110.4,76.8C110.4,76.8,110.4,76.7,110.4,76.8c-1.5-0.2-2.9-0.2-4.4-0.2c3,2.5,3.8,6.7,6,9.9c0,0,0,0,0,0.1
			c0.8-0.5,1.5-1,2.3-1.5C112.8,82.4,112,79.4,110.4,76.8z"/>
		<path class="st0" d="M118.1,82.2c-0.6-1.7-1.6-3.3-2.4-5c-1.3-0.2-2.6-0.4-3.9-0.4c1.3,2.4,2.1,5.1,3.5,7.5
			c0.4-0.3,0.8-0.6,1.2-0.8C117.1,83,117.6,82.7,118.1,82.2C118.1,82.3,118.1,82.2,118.1,82.2z"/>
		<path class="st0" d="M117.3,77.5c0.7,1.3,1.4,2.7,1.9,4.1c1.3-1,2.7-1.9,3.8-3.2C121.1,78,119.2,77.8,117.3,77.5z"/>
		<path class="st0" d="M112.6,89.9c3.6-1.8,6.6-4.4,9.7-6.8c0.2-0.9,0.4-1.9,0.6-2.8c-1.5,1.4-3.2,2.5-4.9,3.7
			c-2.6,1.8-5,3.8-7.8,5.2c0.5,0.2,1,0.5,1.5,0.7c0.2,0.1,0.5,0.2,0.7,0.3C112.4,90,112.5,90,112.6,89.9z"/>
		<path class="st0" d="M120.9,88.1c0.3-1,0.6-2,0.9-3c-2.6,2-5.2,4.1-8.1,5.6c0.5,0.3,1.1,0.5,1.6,0.8
			C117.3,90.5,119.2,89.5,120.9,88.1z"/>
		<path class="st0" d="M116.7,92.2c0.7,0.4,1.4,0.7,2.2,1.1c0.5-1,0.9-2,1.3-3.1C119.1,91,117.9,91.6,116.7,92.2z"/>
		<path class="st0" d="M114.1,92.3c0.4,0.9,0.8,1.8,1.1,2.7c0.8-0.3,1.6-0.6,2.4-1C116.4,93.5,115.3,92.9,114.1,92.3z"/>
		<path class="st0" d="M112.3,91.7c-0.1-0.1-0.1-0.2-0.1-0.3c-0.3-0.1-0.6-0.3-0.9-0.4c-0.8-0.3-1.6-0.7-2.4-1.1
			c1,2.1,1.9,4.3,3.1,6.3c0,0,0,0,0,0c0.7-0.3,1.3-0.5,2-0.8C113.6,94.2,113.1,92.9,112.3,91.7z"/>
		<path class="st0" d="M107.1,89c-1.2-0.6-2.4-1.2-3.6-1.8c1.2,3.5,2.8,6.9,4.5,10.3c0,0.1,0.1,0.2,0.1,0.3c0.9-0.3,1.9-0.7,2.8-1
			C109.4,94.2,108.3,91.6,107.1,89z"/>
		<path class="st0" d="M99,92.2c-0.6,0.8-1.2,1.6-1.9,2.3c1.5,1.5,3,2.9,4.5,4.3C100.8,96.6,100,94.3,99,92.2z"/>
		<path class="st0" d="M100,91.2c1.2,2.5,2.1,5.1,3.1,7.8c0,0.1,0,0.2,0,0.3c1.3-0.4,2.6-0.8,3.9-1.2c0,0,0,0,0,0
			c-1.7-3.6-3.5-7.2-4.8-11c-0.2,0.4-0.4,0.8-0.6,1.2c-0.5,0.9-1.1,1.8-1.7,2.7C99.9,91.1,99.9,91.2,100,91.2z"/>
		<path class="st0" d="M105.5,102c3.4-1.7,7.1-2.7,10.8-3.7c0.6-1,1.1-2,1.7-3c-4.8,1.9-9.5,3.8-14.5,5.2c0.6,0.6,1.3,1.1,1.9,1.6
			C105.4,102.1,105.4,102.1,105.5,102z"/>
		<path class="st0" d="M107.8,104.2c1.8-1,3.8-1.4,5.8-1.8c0.6-0.8,1.2-1.6,1.7-2.5c-3.1,0.9-6.1,1.7-9,3.1
			C106.8,103.4,107.3,103.8,107.8,104.2C107.8,104.2,107.8,104.2,107.8,104.2z"/>
		<path class="st0" d="M108.8,105.1c0.5,0.4,1,0.9,1.5,1.3c0.7-0.8,1.4-1.6,2.1-2.5C111.1,104.2,109.9,104.5,108.8,105.1z"/>
		<path class="st0" d="M105.1,106.6c1.2,0,2.5,0.1,3.7,0.1c-1.3-1.1-2.5-2.1-3.8-3.2C105.1,104.5,105.1,105.6,105.1,106.6z"/>
		<path class="st0" d="M103.4,102.2C103.4,102.2,103.4,102.2,103.4,102.2c-0.7-0.6-1.3-1.2-2-1.8c0.1,2,0.2,4.1,0.2,6.1
			c0.7,0,1.4,0.1,2.2,0.1C103.8,105.1,103.8,103.6,103.4,102.2z"/>
		<path class="st0" d="M100.4,106.5c0-2.4-0.2-4.8-0.3-7.3c-1.1-1-2.2-2.1-3.2-3.1c0,3.5,0.6,6.9,0.2,10.3
			C98.2,106.4,99.3,106.4,100.4,106.5z"/>
		<path class="st0" d="M91.5,99.6c-0.8,0.5-1.6,1.1-2.4,1.6c0.9,1.3,1.8,2.6,2.6,4C91.5,103.2,91.5,101.4,91.5,99.6z"/>
		<path class="st0" d="M95.7,96c-0.9,0.9-1.9,1.8-3,2.6c0,2.6,0,5.2,0.4,7.7c0,0,0,0.1,0,0.1c0.9,0,1.8,0,2.7,0
			C96.3,102.9,95.7,99.5,95.7,96z"/>
		<path class="st0" d="M93.2,107.7c0.4,0.7,0.8,1.5,1.2,2.2c3.9-0.9,7.9,0.1,11.9,0.6c0.9-0.8,1.7-1.6,2.6-2.5
			C107.5,107.9,96.7,107.6,93.2,107.7z"/>
		<path class="st0" d="M96.4,113.9c0.5,0.9,0.9,1.8,1.4,2.6c1.2-0.7,2.4-1.5,3.6-2.3C99.8,114.1,98.1,113.9,96.4,113.9z"/>
		<path class="st0" d="M102.9,113.2c0.7-0.5,1.4-1.1,2.1-1.7c-3.3-0.5-6.7-1.2-10-0.5c0.3,0.5,0.6,1.1,0.8,1.6
			C98.2,112.6,100.5,112.9,102.9,113.2z"/>
		<path class="st0" d="M36.2,105.1c0.1,1.3,0.2,2.5,0.3,3.8c1-1.3,2.1-2.4,3.3-3.5C38.6,105.3,37.4,105.2,36.2,105.1z"/>
		<path class="st0" d="M44.3,91.2c-0.4-0.6-0.8-1.2-1.2-1.8c-1,0.5-2,1.1-3,1.7C41.5,91.1,42.9,91.1,44.3,91.2z"/>
		<path class="st0" d="M45.3,92.5c-2.4-0.2-4.8-0.2-7.2-0.3c-0.8,0.5-1.6,1-2.4,1.5c0.1,0.8,0.1,1.6,0.2,2.4
			C39.9,96,44,95.7,48,95.6C47.1,94.6,46.2,93.6,45.3,92.5z"/>
		<path class="st0" d="M35.9,97.3c0,0.9,0.1,1.7,0.1,2.6c3.3,0,6.6,0,9.9-0.1c1-1,2-2,3-3C44.6,96.9,40.2,97.3,35.9,97.3z"/>
		<path class="st0" d="M36,101.1c0,0.9,0,1.8,0.1,2.7c1.7,0.1,3.3,0.2,5,0.4c0.4-0.3,0.8-0.7,1.2-1c0.8-0.7,1.5-1.4,2.3-2.1
			C41.7,101.1,38.9,101.1,36,101.1z"/>
		<path class="st0" d="M33,105.6c0.7,0.8,1.4,1.6,2.1,2.3c-0.4-4.5-0.3-9.1-0.7-13.6c-0.6,0.4-1.3,0.7-1.9,1.1
			C32.6,98.8,33.4,102.2,33,105.6z"/>
		<path class="st0" d="M29,97.1c-0.5,0.2-1,0.4-1.5,0.6c0.5,0.8,1,1.7,1.5,2.5V97.1z"/>
		<path class="st0" d="M31.3,96.1c-0.4,0.2-0.7,0.3-1.1,0.5c0,0,0,0,0,0v5.5c0.5,0.7,1.1,1.4,1.6,2.1
			C31.9,101.5,31.4,98.8,31.3,96.1z"/>
		<path class="st0" d="M23.4,82.2c-0.6,0-1.2,0.1-1.8,0.1c0.2,1,0.5,2,0.7,3.1C22.7,84.3,23,83.3,23.4,82.2z"/>
		<path class="st0" d="M24.8,82.1c-0.8,1.7-1.3,3.6-1.9,5.4c0.2,0.7,0.5,1.5,0.7,2.2c0.9-2.5,1.8-5.1,2.5-7.7
			C25.7,82.1,25.3,82.1,24.8,82.1z"/>
		<path class="st0" d="M27.5,81.9c-0.8,3.3-2,6.5-3.1,9.7c0.5,1.2,1,2.4,1.6,3.5c1.7-4.4,2.5-9.2,4.2-13.6
			C29.3,81.7,28.4,81.8,27.5,81.9z"/>
		<path class="st0" d="M28.2,92.4c-0.4,1.4-0.9,2.8-1.5,4.2c0,0,0,0.1,0.1,0.1c2-0.7,3.9-1.7,5.8-2.7C31.1,93.6,29.6,93,28.2,92.4z"
			/>
		<path class="st0" d="M33.9,80.8c-0.8,0.1-1.5,0.3-2.3,0.4c-0.1,0.3-0.3,0.7-0.4,1.1c3.4,1.3,6.8,2.4,10.2,3.6
			c-0.4-0.9-0.8-1.8-1.1-2.8C38.1,82.6,35.9,82,33.9,80.8z"/>
		<path class="st0" d="M39.8,81.8c0-0.2-0.1-0.3-0.1-0.5c-0.2-0.5-0.3-1.1-0.4-1.6c-1.1,0.3-2.2,0.5-3.3,0.7
			C37.2,81,38.5,81.4,39.8,81.8z"/>
		<path class="st0" d="M30.8,83.5c-0.3,0.9-0.6,1.9-0.9,2.9c0,0,0,0,0,0c3,1.4,6.2,2.4,9.3,3.7c1.1-0.6,2.2-1.2,3.3-1.8
			c-0.1-0.2-0.2-0.4-0.3-0.6C38.4,86.2,34.6,85,30.8,83.5z"/>
		<path class="st0" d="M29.6,87.6c-0.3,1.2-0.6,2.4-1,3.6c1.8,0.9,3.7,1.5,5.6,1.9c1.2-0.7,2.5-1.5,3.7-2.2
			C35.1,89.8,32.3,88.8,29.6,87.6z"/>
		<path class="st0" d="M35.4,69.2c0.9,1,1.9,1.8,3,2.6c0-0.7,0-1.4,0.1-2.1C37.4,69.6,36.4,69.4,35.4,69.2z"/>
		<path class="st0" d="M33.5,68.8c-0.5-0.1-1-0.2-1.4-0.3c-0.2,0.5-0.5,1-0.8,1.5c2.5,2,5,3.8,7.3,5.9c-0.1-0.8-0.2-1.7-0.2-2.5
			C36.6,72,34.7,70.7,33.5,68.8z"/>
		<path class="st0" d="M30.6,71.1c-0.5,0.7-1,1.4-1.5,2.1c0.1,0,0.1,0.1,0.2,0.1c2.3,2.3,5.3,3.8,8.1,5.6c0.6-0.1,1.1-0.2,1.7-0.4
			c0-0.2-0.1-0.4-0.1-0.5C36.3,75.4,33.4,73.3,30.6,71.1z"/>
		<path class="st0" d="M26.1,76.7c1.7,1.3,3.6,2.3,5.5,3.3c1.3-0.2,2.6-0.5,3.9-0.8c-2.5-1.5-5.1-2.9-7.2-5c0,0,0,0,0,0
			C27.6,75,26.9,75.9,26.1,76.7C26.1,76.7,26.1,76.7,26.1,76.7z"/>
		<path class="st0" d="M25.3,77.6c-1.1,1.1-2.1,2.3-3.2,3.4c2.5-0.1,5-0.3,7.5-0.7C28.1,79.5,26.6,78.7,25.3,77.6z"/>
		<path class="st0" d="M23.2,66.8c-0.8-0.1-1.6-0.2-2.4-0.2c-0.1,1.2-0.2,2.5-0.2,3.7C21.5,69.2,22.4,68,23.2,66.8z"/>
		<path class="st0" d="M24.6,67c-1.3,1.8-2.6,3.6-4,5.3c0,0.9,0,1.9,0.1,2.8c2.2-2.5,4.4-4.9,6-7.8C26,67.2,25.3,67.1,24.6,67z"/>
		<path class="st0" d="M27.9,67.6c-1.9,3.5-4.6,6.3-7.1,9.3c0.1,1.1,0.2,2.1,0.4,3.2c3.4-3.7,7.3-7.3,9.6-11.9
			C29.8,68,28.9,67.8,27.9,67.6z"/>
		<path class="st0" d="M61.8,23.7c-0.1-0.7-0.2-1.3-0.2-2c-1.2,0.3-2.4,0.6-3.6,0.9C59.2,23,60.5,23.4,61.8,23.7z"/>
		<path class="st0" d="M56.2,23.1c-1.1,0.4-2.3,0.8-3.4,1.2c1.1,0.3,2.2,0.7,3.3,1.1c2,0.7,4.1,1,6.2,1.4c-0.1-0.6-0.2-1.2-0.3-1.7
			C60,24.6,58,24,56.2,23.1z"/>
		<path class="st0" d="M62.4,28c-2-0.4-4-0.6-6-1.2c-1.9-0.6-3.8-1.5-5.8-1.6c-0.8,0.4-1.7,0.8-2.5,1.2c4.7,2.3,9.9,3.6,15,4.1
			c-0.2-0.8-0.4-1.7-0.6-2.5C62.6,28,62.5,28.1,62.4,28z"/>
		<path class="st0" d="M51.7,29.3C51.7,29.3,51.7,29.3,51.7,29.3c-1.4-0.5-2.8-1.1-4.2-1.8c0.8,1.9,1.7,3.6,2.7,5.3
			C50.7,31.6,51.2,30.5,51.7,29.3z"/>
		<path class="st0" d="M55.6,30.5c-0.9-0.2-1.9-0.5-2.8-0.8c-0.6,1.5-1.3,3-1.9,4.5c0.6,1,1.3,2,1.9,3C53.9,35,54.6,32.6,55.6,30.5z
			"/>
		<path class="st0" d="M56.1,42.4c1.4-3.7,2.6-7.4,4.1-11c-1.1-0.2-2.2-0.4-3.3-0.6c-1.3,2.5-2,5.2-3.1,7.7
			C54.6,39.8,55.3,41,56.1,42.4C56.1,42.4,56.1,42.4,56.1,42.4z"/>
		<path class="st0" d="M63.8,33.4C63.8,33.3,63.9,33.3,63.8,33.4c-0.1-0.6-0.2-1-0.3-1.5c-0.7-0.1-1.4-0.2-2.1-0.3c0,0,0,0.1,0,0.1
			c-1.4,3.2-2.5,6.6-3.7,9.8c1.1-0.5,2.1-0.9,3.3-1.3C61.8,37.9,62.6,35.5,63.8,33.4z"/>
		<path class="st0" d="M64.3,35.2c-0.7,1.5-1.3,3-1.8,4.6c0.1,0,0.2-0.1,0.3-0.1c0.8-0.2,1.5-0.4,2.3-0.6
			C64.9,37.8,64.6,36.5,64.3,35.2z"/>
	</g>
	<g>
		<path class="st0" d="M85.3,60.3c2.5-3.1,4.8-6.4,7.8-9c-0.7-0.7-1.4-1.3-2.1-2c-2.9,3.9-6.1,7.6-9.1,11.5c-2.7,3.5-6,6.5-8.6,10.2
			c0.9,0,1.7-0.1,2.6-0.2C79,67.2,82.3,63.9,85.3,60.3z"/>
		<path class="st0" d="M80.5,69.9c2.6-3.2,5.9-5.7,8.6-8.7c2.2-2.4,4-5,6.5-7c-0.5-0.7-1.1-1.4-1.7-2.1c-3,2.7-5.3,5.9-7.8,9
			c-2.6,3.2-5.5,6.2-8.3,9.3C78.7,70.3,79.6,70.1,80.5,69.9C80.5,70,80.5,69.9,80.5,69.9z"/>
		<path class="st0" d="M100,62.4c-0.4-1.1-0.8-2.1-1.3-3.1c-1.9,1.4-3.4,3.4-5,5.2c-1.6,1.6-3.3,3.1-5,4.6c1.3,0,2.5-0.1,3.8-0.1
			C95.3,67,97.5,64.6,100,62.4z"/>
		<path class="st0" d="M100.4,63.7c-1.9,1.7-3.7,3.5-5.7,5.1c2.2-0.2,4.4-0.4,6.6-1c-0.2-1.3-0.5-2.6-0.8-3.9
			C100.5,63.8,100.5,63.7,100.4,63.7z"/>
		<path class="st0" d="M93.4,63c1.5-1.7,3-3.6,4.8-4.9c-0.5-1-1.1-2-1.8-2.9c-2.7,2.2-4.6,5.1-7,7.6c-2.3,2.4-4.8,4.5-7,6.9
			c1.4-0.2,2.9-0.4,4.4-0.5C88.9,67.1,91.3,65.3,93.4,63z"/>
		<path class="st0" d="M101.6,72.4c0-1.1,0-2.2-0.1-3.4c-4.1,1.1-8.4,1.2-12.6,1.3c-5.2,0.1-10.2,1.5-15.4,1.8
			c0.7,0.5,1.4,1.1,2.2,1.6C84.4,73.8,93,73.4,101.6,72.4z"/>
		<path class="st0" d="M101.4,75.8c0.1-0.7,0.2-1.4,0.2-2.1c-8.1,0.9-16.2,1.3-24.3,1.3c0.8,0.6,1.6,1.2,2.4,1.9
			C86.9,76.4,94.2,76.4,101.4,75.8z"/>
		<path class="st0" d="M85.7,81.3c4.9-0.7,9.9-0.5,14.8-1.2c0.3-1,0.5-2,0.7-3.1c-6.7,0.6-13.4,0.6-20,1
			C82.7,79.2,84.2,80.3,85.7,81.3C85.7,81.3,85.7,81.3,85.7,81.3z"/>
		<path class="st0" d="M99.2,83.9c0.3-0.8,0.7-1.6,0.9-2.4c-4.2,0.5-8.5,0.5-12.7,0.9c1.1,0.7,2.3,1.5,3.4,2.3
			C93.5,83.8,96.3,83.9,99.2,83.9z"/>
		<path class="st0" d="M92.1,85.6c1.5,1,2.9,2.1,4.3,3.3c0.5-0.8,1.1-1.6,1.5-2.5c0.2-0.4,0.5-0.8,0.7-1.3
			C96.4,85.1,94.2,85.1,92.1,85.6z"/>
		<path class="st0" d="M71.4,73.5c-0.7,0.5-1.3,1.1-1.8,1.8c0.7,4.1,0.4,8.1,0.5,12.2c0.1,4.7,1,9.4,1.3,14.2c1.2,0,2.5,0,3.7-0.1
			C73.1,92.2,71.6,82.9,71.4,73.5z"/>
		<path class="st0" d="M63.4,100.3c0.8,0.2,1.6,0.5,2.4,0.6c-0.4-6.6-0.1-13.3-0.6-20c-0.6,0.9-1.2,1.8-1.9,2.7
			C64.2,89.2,64,94.8,63.4,100.3z"/>
		<path class="st0" d="M58,91.1c-1.2,1.6-2.3,3.2-3.6,4.7c1.1,0.8,2.2,1.5,3.4,2.2C58,95.7,58,93.4,58,91.1z"/>
		<path class="st0" d="M62.3,85.2c-1,1.4-2,2.8-3,4.2c0,3.1,0,6.2-0.2,9.2c1,0.5,2,0.9,3.1,1.3C62.7,95,62.9,90.1,62.3,85.2z"/>
		<path class="st0" d="M67.1,101.2c1,0.2,2,0.3,3,0.4c-0.3-4.4-1-8.7-1.2-13.1c-0.2-4,0.2-8.1-0.3-12.1c-0.8,0.9-1.5,1.9-2.2,2.9
			C67,86.6,66.7,93.9,67.1,101.2z"/>
		<path class="st0" d="M42.4,71.6c0,1.1,0,2.1,0.1,3.2c4.6-0.7,9.3-1,13.9-1.7c4.6-0.7,9.1-1.5,13.8-1.7c-0.7-0.5-1.5-1.1-2.2-1.6
			C59.4,69.9,50.9,70.6,42.4,71.6z"/>
		<path class="st0" d="M53.7,59.1C51,58.9,48.2,59,45.5,59c-0.5,0.9-0.9,1.9-1.2,2.9c4.2-0.2,8.3-0.3,12.5-0.3
			C55.7,60.8,54.7,59.9,53.7,59.1z"/>
		<path class="st0" d="M52.1,57.7c-1.3-1.1-2.6-2.2-3.9-3.2c-0.8,1-1.4,2.1-2,3.2C48.1,57.7,50.1,57.7,52.1,57.7z"/>
		<path class="st0" d="M58.4,62.8c-4.9,0-9.7,0.1-14.6,0.3c-0.3,1-0.6,2-0.8,3c6.3-0.7,12.6-0.8,18.9-0.8c-1-0.7-2-1.5-3-2.2
			C58.7,63.1,58.6,63,58.4,62.8z"/>
		<path class="st0" d="M42.8,67.4c-0.2,1-0.3,1.9-0.3,2.9c7.9-1,15.8-1.6,23.8-1.8c-0.9-0.6-1.8-1.3-2.6-1.9
			C56.7,66.6,49.7,66.7,42.8,67.4z"/>
		<path class="st0" d="M60.1,59.8c-1.8-1.6-3.7-3.1-5.5-4.8c-1.3-1.2-2.3-2.7-3.8-3.7c-0.7,0.7-1.3,1.4-2,2.2
			c3.6,2.8,6.9,5.9,10.6,8.5c3.8,2.8,7.7,5.5,11.5,8.3c-0.2-1.1-0.5-2.1-0.7-3.2C66.7,64.9,63.3,62.5,60.1,59.8z"/>
		<path class="st0" d="M67.2,46.4c-0.1-1.2-0.1-2.3-0.2-3.5c-0.9,0.1-1.7,0.3-2.6,0.6C65.5,44.3,66.3,45.4,67.2,46.4z"/>
		<path class="st0" d="M67.3,48.4c-1.4-1.5-2.6-3.3-4.3-4.5c-0.9,0.3-1.8,0.6-2.6,1c1.2,1.3,2.2,2.7,3.2,4.1
			c1.2,1.5,2.7,2.8,4.2,3.9C67.6,51.4,67.5,49.9,67.3,48.4C67.3,48.4,67.3,48.4,67.3,48.4z"/>
		<path class="st0" d="M63.3,50.5c-1.4-1.7-2.6-3.5-4.1-5.1c-1.1,0.6-2.3,1.2-3.3,1.9c4.3,3.8,8.2,8.1,12.8,11.5
			c-0.2-1.4-0.4-2.8-0.6-4.2C66.3,53.4,64.6,52.1,63.3,50.5z"/>
		<path class="st0" d="M54.8,48c-1.1,0.8-2.1,1.6-3,2.5c2.7,1.9,5,4.9,7.5,7c3.4,2.9,6.9,5.5,10.6,8c-0.3-1.6-0.6-3.3-0.9-4.9
			C63.8,56.8,59.6,52.1,54.8,48z"/>
		<path class="st0" d="M76.6,42.8c-1.2-0.2-2.4-0.3-3.5-0.3c0.3,3.6-0.1,7.2,0,10.8c0.1,4.5,1.1,9,2,13.4c0.8-0.9,1.6-1.8,2.5-2.7
			C76.5,56.9,76.6,49.8,76.6,42.8z"/>
		<path class="st0" d="M86.6,46.3c0,2.1,0,4.3,0.1,6.4c1.1-1.4,2.2-2.8,3.3-4.2C88.9,47.7,87.8,46.9,86.6,46.3z"/>
		<path class="st0" d="M85.4,45.6c-1-0.5-2-0.9-3-1.3c0,4.4,0,8.8,0.5,13.1c0.9-1.1,1.7-2.1,2.6-3.2C85.4,51.4,85.4,48.5,85.4,45.6z
			"/>
		<path class="st0" d="M81.1,43.9c-1.1-0.3-2.1-0.6-3.2-0.9c0,6.5-0.1,13.1,0.8,19.6c0.7-0.8,1.4-1.6,2.1-2.5c0.3-0.4,0.7-0.9,1-1.3
			C81.1,53.9,81.1,48.9,81.1,43.9z"/>
		<path class="st0" d="M74.1,67.5c-0.9-3.9-1.7-8-2.1-12c-0.5-4.4,0.3-8.7-0.2-13.1c-1.2,0-2.4,0.1-3.6,0.2
			c0.2,9.3,1.9,18.5,3.9,27.6c0.6-0.9,1.3-1.7,2-2.5C74.1,67.7,74.1,67.6,74.1,67.5z"/>
		<path class="st0" d="M60.1,73.8c-2.4,2.5-4.6,5.1-6.6,7.9c-1.8,2.5-3.9,4.8-5.7,7.3c0.8,1.1,1.7,2.2,2.6,3.2
			c2.4-3.2,4.4-6.7,6.9-9.8c2.6-3.2,5.6-6.1,8.1-9.4C63.6,73.3,61.8,73.6,60.1,73.8z"/>
		<path class="st0" d="M55.6,74.5c-0.8,0.1-1.5,0.2-2.3,0.3c-3.3,2.7-5.6,6.2-8.2,9.5c0.6,1.2,1.2,2.4,1.9,3.6
			c1.9-2.6,4.1-5.1,6-7.7c1.5-2.1,3.2-4.1,5-6C57.2,74.3,56.4,74.4,55.6,74.5z"/>
		<path class="st0" d="M47.5,75.5c-1.4,1.3-2.8,2.6-4.1,4c0.1,0.2,0.1,0.5,0.2,0.7c0.3,1,0.6,1.9,1,2.8c2.1-2.7,4.1-5.6,6.6-8
			C49.9,75.2,48.7,75.3,47.5,75.5z"/>
		<path class="st0" d="M45.4,75.7c-0.9,0.1-1.8,0.2-2.7,0.3c0.1,0.7,0.2,1.3,0.3,2C43.8,77.3,44.6,76.5,45.4,75.7z"/>
		<path class="st0" d="M67.1,72.9c-2.5,3.4-5.5,6.4-8.2,9.6c-2.8,3.3-5,7.1-7.6,10.6c0.7,0.7,1.4,1.3,2.2,1.9
			c3.6-4.4,6.9-9.1,10.1-13.8c2.1-3.1,4.1-6.2,6.9-8.6C69.3,72.7,68.2,72.8,67.1,72.9z"/>
		<path class="st0" d="M83.5,85.4c3.3,2.4,6.8,4.5,10.2,6.8c0.7-0.8,1.4-1.5,2-2.4c-3.6-3-7.6-5.6-11.5-8.1c-4-2.6-7.6-5.8-11.5-8.7
			c0,0.9,0.1,1.8,0.1,2.7C76.4,78.9,79.6,82.5,83.5,85.4z"/>
		<path class="st0" d="M90.3,95.3c0.9-0.7,1.7-1.4,2.5-2.2c-3.6-2.4-7.3-4.7-10.8-7.3c-3.3-2.5-6.1-5.6-9.2-8.4
			c0.1,1.2,0.2,2.3,0.3,3.5C78.9,85.7,84.1,91.1,90.3,95.3z"/>
		<path class="st0" d="M81.5,100.1c1.4-0.5,2.8-1.1,4.1-1.8c-3.8-3.4-7.5-7-11.6-10c0.2,1.5,0.5,3,0.7,4.5
			C77.1,95.1,79.4,97.5,81.5,100.1z"/>
		<path class="st0" d="M75.1,95c0.4,2.1,0.8,4.3,1.2,6.4c1.3-0.2,2.6-0.5,3.9-0.8c0,0,0,0,0,0C78.6,98.6,76.9,96.7,75.1,95z"/>
		<path class="st0" d="M86.8,97.7c0.8-0.5,1.6-1,2.4-1.6c-5.7-4-10.6-8.9-15.9-13.4c0.1,1.3,0.3,2.6,0.5,3.9
			C78.5,89.9,82.6,93.9,86.8,97.7z"/>
	</g>
	<g>
		<path class="st0" d="M143.9,66.8c0-0.6-0.1-1.2-0.1-1.8l-16.2,2c0,0.4,0.1,0.8,0.1,1.2C133.1,68.2,138.5,67.7,143.9,66.8z"/>
		<path class="st0" d="M127.7,69.3c0,0.5,0,0.9,0.1,1.4c3.3,0,6.6-0.1,9.9,0c2.1,0,4.3,0.2,6.4,0.1c0-1-0.1-1.9-0.1-2.8
			C138.6,68.8,133.1,69.2,127.7,69.3z"/>
		<path class="st0" d="M138.7,71.7c-3.6,0-7.3,0-10.9,0c0,0.5,0,1,0,1.4l16.3,0.9c0-0.7,0-1.5,0-2.2
			C142.3,71.9,140.5,71.7,138.7,71.7z"/>
		<path class="st0" d="M90,9.1c0.5-2.1,1.1-4.3,1.7-6.4c-0.6-0.2-1.2-0.3-1.8-0.5l-3.7,15.9c0.3,0.1,0.6,0.2,0.9,0.2
			C87.9,15.3,89.2,12.3,90,9.1z"/>
		<path class="st0" d="M92.8,3.1c-0.6,2.1-1.1,4.2-1.7,6.4c-0.8,3.2-2.1,6.2-2.9,9.3c0.5,0.2,1.1,0.3,1.6,0.5
			c1.1-2.9,1.9-5.8,2.8-8.8c0.7-2.3,1.6-4.5,2.2-6.8C94.1,3.5,93.4,3.3,92.8,3.1z"/>
		<path class="st0" d="M95.8,4c-0.7,2.3-1.5,4.5-2.2,6.7c-0.9,3-1.7,6-2.8,8.9c0.5,0.2,0.9,0.3,1.4,0.5l6.4-15.1
			C97.6,4.7,96.7,4.4,95.8,4z"/>
		<path class="st0" d="M104.8,7.9c-3.1,4.5-5.1,9.6-7.2,14.7c0.4,0.2,0.9,0.5,1.3,0.7c1.3-2.9,2.4-5.8,3.9-8.6
			c1.1-2,2.7-3.8,3.7-5.9C105.9,8.5,105.3,8.2,104.8,7.9z"/>
		<path class="st0" d="M103.8,7.4c-0.7-0.3-1.3-0.6-2-1l-6.4,15.1c0.4,0.2,0.8,0.4,1.1,0.6C98.7,17,100.7,11.9,103.8,7.4z"/>
		<path class="st0" d="M107.4,9.3c-0.9,1.8-2.3,3.3-3.3,5c-1.7,3-2.9,6.3-4.4,9.4c0.4,0.2,0.7,0.4,1.1,0.6l8.9-13.7
			C109,10.2,108.2,9.8,107.4,9.3z"/>
		<path class="st0" d="M79.8,0.4c-0.8-0.1-1.5-0.2-2.3-0.2l-0.9,16.3c0.5,0,0.9,0.1,1.4,0.1C78.5,11.2,78.7,5.8,79.8,0.4z"/>
		<path class="st0" d="M80.9,0.6c-1.1,5.3-1.4,10.8-1.7,16.2c0.4,0.1,0.8,0.1,1.2,0.2C81.1,11.6,82,6.2,83,0.8
			C82.3,0.7,81.6,0.7,80.9,0.6z"/>
		<path class="st0" d="M84.1,1c-1,5.3-1.9,10.7-2.6,16.1c0.5,0.1,0.9,0.2,1.4,0.3l3.7-15.9C85.7,1.3,84.9,1.2,84.1,1z"/>
		<path class="st0" d="M136.1,83.3c-3.1-0.5-6.2-0.6-9.3-1.2c0,0.2-0.1,0.5-0.1,0.7l15.9,3.7c0.1-0.6,0.3-1.3,0.4-1.9
			C140.7,84.4,138.4,83.7,136.1,83.3z"/>
		<path class="st0" d="M137.1,78.6c2.2,0,4.4,0.3,6.6,0.3c0-0.4,0.1-0.9,0.1-1.3l-16.3-0.9c0,0.5-0.1,1-0.2,1.5
			C130.6,78.6,133.9,78.6,137.1,78.6z"/>
		<path class="st0" d="M137.1,79.7c-3.3,0-6.6-0.1-9.9-0.4c-0.1,0.6-0.2,1.2-0.3,1.8c3.1,0.5,6.2,0.7,9.3,1.2c2.3,0.4,4.5,1,6.9,1.2
			c0.2-1.2,0.3-2.3,0.5-3.5C141.5,80,139.3,79.7,137.1,79.7z"/>
		<path class="st0" d="M38.1,116.2c-0.3-0.2-0.6-0.4-0.9-0.7c-3.9,3.8-7.9,7.6-10.9,12.2c0.7,0.6,1.5,1.2,2.3,1.8
			C32.2,125.4,34.2,120.1,38.1,116.2z"/>
		<path class="st0" d="M38.9,116.8c-3.9,3.9-5.9,9.2-9.5,13.3c0.6,0.5,1.3,0.9,1.9,1.4l8.9-13.7C39.8,117.5,39.4,117.1,38.9,116.8z"
			/>
		<path class="st0" d="M36.4,114.8c-0.3-0.3-0.7-0.6-1-0.8l-11.1,11.9c0.4,0.4,0.8,0.7,1.2,1.1C28.5,122.4,32.5,118.6,36.4,114.8z"
			/>
		<path class="st0" d="M61.9,17.3c0.5-0.1,1.1-0.2,1.6-0.3l-2-16.2c-0.9,0.1-1.8,0.3-2.7,0.5C59.6,6.6,61.5,11.8,61.9,17.3z"/>
		<path class="st0" d="M59.6,17.7c0.4-0.1,0.8-0.2,1.2-0.3C60.5,12,58.5,6.8,57.7,1.4c-0.8,0.2-1.6,0.3-2.4,0.5
			C56.5,7.3,58.2,12.5,59.6,17.7z"/>
		<path class="st0" d="M54.3,2.2c-0.6,0.1-1.1,0.3-1.7,0.4l4.8,15.7c0.4-0.1,0.7-0.2,1.1-0.3C57.1,12.7,55.5,7.5,54.3,2.2z"/>
		<path class="st0" d="M134.4,89.4c2.4,0.5,4.7,1.2,7.1,1.7c0.1-0.4,0.2-0.8,0.3-1.1l-15.9-3.7c-0.1,0.4-0.2,0.8-0.3,1.1
			C128.4,88.4,131.4,88.8,134.4,89.4z"/>
		<path class="st0" d="M134.1,90.4c-3-0.6-6-0.9-8.9-2c-0.1,0.5-0.3,0.9-0.4,1.4c5.3,1.3,10.2,4.1,15.5,5.3c0.3-1,0.6-2,0.9-2.9
			C138.9,91.6,136.5,90.9,134.1,90.4z"/>
		<path class="st0" d="M124.4,90.9c-0.2,0.4-0.3,0.9-0.5,1.3l15.1,6.4c0.3-0.8,0.6-1.6,0.9-2.5C134.6,94.9,129.8,92.2,124.4,90.9z"
			/>
		<path class="st0" d="M114.6,13.9c-0.6-0.5-1.2-0.9-1.9-1.3l-8.9,13.7c0.3,0.2,0.5,0.4,0.8,0.6C108.3,22.8,111.4,18.4,114.6,13.9z"
			/>
		<path class="st0" d="M115.4,14.6c-3.2,4.4-6.3,8.9-10,12.9c0.4,0.3,0.8,0.6,1.1,0.9c2.2-2.2,3.9-4.6,5.7-7.1
			c1.4-1.9,3.1-3.7,4.5-5.7C116.3,15.3,115.9,14.9,115.4,14.6z"/>
		<path class="st0" d="M117.6,16.3c-1.5,2.2-3.3,4.2-4.9,6.3c-1.7,2.3-3.3,4.5-5.2,6.5c0.4,0.3,0.8,0.7,1.3,1l11.1-11.9
			C119.1,17.6,118.4,16.9,117.6,16.3z"/>
		<path class="st0" d="M31.6,110.4c-1.9,1.9-4.2,3.4-6.1,5.2c-2,1.9-4,3.8-5.9,5.8c0.7,0.7,1.3,1.4,2,2.1l11.1-11.9
			C32.4,111.2,32,110.8,31.6,110.4z"/>
		<path class="st0" d="M24.7,114.8c1.9-1.8,4.3-3.4,6.1-5.2c-0.3-0.3-0.6-0.6-0.9-1c-4.5,3-9,6.3-12.3,10.6c0.4,0.5,0.8,0.9,1.3,1.4
			C20.7,118.6,22.7,116.7,24.7,114.8z"/>
		<path class="st0" d="M29.3,107.8c-0.2-0.3-0.5-0.5-0.7-0.8l-13,9.8c0.4,0.5,0.9,1.1,1.3,1.6C20.3,114.1,24.8,110.8,29.3,107.8z"/>
		<path class="st0" d="M46.5,121.6c-0.5-0.2-0.9-0.5-1.3-0.7c-1.6,2-2.8,4.4-4,6.6c-1.4,2.5-2.7,5.1-3.8,7.7
			c0.6,0.3,1.1,0.6,1.7,0.9C41.3,131.1,45,126.8,46.5,121.6z"/>
		<path class="st0" d="M47.5,122.1c-1.6,5.2-5.2,9.6-7.5,14.5c0.7,0.4,1.5,0.7,2.3,1.1l6.4-15C48.3,122.4,47.9,122.2,47.5,122.1z"/>
		<path class="st0" d="M40.2,126.9c1.2-2.2,2.4-4.6,4-6.6c-0.3-0.2-0.7-0.4-1-0.6l-8.9,13.7c0.7,0.4,1.4,0.8,2.1,1.2
			C37.5,132,38.8,129.4,40.2,126.9z"/>
		<path class="st0" d="M118.7,27.3c1.9-1.5,3.7-3.2,5.4-5c-0.6-0.6-1.1-1.2-1.7-1.7l-11.1,11.9c0.2,0.2,0.5,0.5,0.7,0.7
			C113.9,30.9,116.3,29.2,118.7,27.3z"/>
		<path class="st0" d="M119.5,28.1c-2.4,1.9-4.8,3.6-6.8,5.9c0.4,0.4,0.8,0.8,1.1,1.3c4.1-3.6,8.8-6.4,12.9-10.1
			c-0.6-0.7-1.2-1.4-1.9-2.1C123.1,24.8,121.4,26.6,119.5,28.1z"/>
		<path class="st0" d="M114.5,36.1c0.3,0.3,0.6,0.7,0.9,1l13-9.8c-0.3-0.4-0.7-0.9-1.1-1.3C123.3,29.7,118.6,32.5,114.5,36.1z"/>
		<path class="st0" d="M62,126.9c-0.3-0.1-0.6-0.1-0.8-0.2l-3.7,15.9c0.5,0.1,1.1,0.2,1.6,0.3C60.6,137.6,60.3,132,62,126.9z"/>
		<path class="st0" d="M64.4,127.2c-0.4-0.1-0.8-0.1-1.3-0.2c-1.8,5.1-1.5,10.8-2.8,16.1c0.9,0.1,1.7,0.3,2.6,0.4
			C63,138,63.3,132.6,64.4,127.2z"/>
		<path class="st0" d="M65.4,127.4c-1,5.3-1.4,10.8-1.5,16.2c0.8,0.1,1.7,0.2,2.5,0.3l0.9-16.3C66.7,127.5,66.1,127.5,65.4,127.4z"
			/>
		<path class="st0" d="M137,103.2c0.2-0.5,0.5-0.9,0.7-1.4l-15.1-6.4c-0.2,0.4-0.4,0.8-0.6,1.1C127.4,97.8,131.9,101.2,137,103.2z"
			/>
		<path class="st0" d="M121.5,97.5c-0.2,0.4-0.4,0.8-0.6,1.1c4.6,3,9.5,5.5,14,8.6c0.6-1,1.1-2.1,1.7-3.1
			C131.4,102.1,126.9,98.7,121.5,97.5z"/>
		<path class="st0" d="M120.4,99.6c-0.2,0.4-0.5,0.8-0.7,1.3l13.7,8.9c0.3-0.5,0.6-1,0.9-1.6C129.9,105.1,125,102.6,120.4,99.6z"/>
		<path class="st0" d="M101.5,137.8c0.6-0.3,1.1-0.5,1.7-0.8l-7.4-14.6c-0.4,0.2-0.8,0.4-1.2,0.5C97.3,127.7,98.9,133,101.5,137.8z"
			/>
		<path class="st0" d="M93.5,123.4c-0.5,0.2-0.9,0.4-1.4,0.6c0.6,0.9,0.9,1.7,1.2,2.8c0.5,1.9,1.4,3.6,2.2,5.3
			c1,2.2,2.2,4.6,2.8,7.1c0.8-0.3,1.5-0.6,2.2-0.9C97.9,133.4,96.3,128.1,93.5,123.4z"/>
		<path class="st0" d="M94.6,132.9c-0.6-1.4-1.3-2.7-1.9-4.1c-0.6-1.5-0.7-3.1-1.7-4.5c-0.4,0.1-0.7,0.3-1.1,0.4l4.8,15.7
			c0.8-0.3,1.6-0.6,2.5-0.9C96.6,137.3,95.5,135.1,94.6,132.9z"/>
		<path class="st0" d="M89.6,141.9c0.6-0.2,1.2-0.3,1.8-0.5l-4.8-15.7c-0.5,0.1-1,0.3-1.5,0.4C87.2,131.2,88.5,136.6,89.6,141.9z"/>
		<path class="st0" d="M84.1,126.4c-0.4,0.1-0.8,0.2-1.1,0.3c1.4,5.3,2.1,10.7,3.1,16c0.8-0.2,1.6-0.3,2.4-0.5
			C87.4,136.8,86.2,131.5,84.1,126.4z"/>
		<path class="st0" d="M81.9,126.9c-0.4,0.1-0.9,0.2-1.3,0.2l2,16.2c0.8-0.1,1.7-0.3,2.5-0.4C84,137.6,83.2,132.1,81.9,126.9z"/>
		<path class="st0" d="M76.4,143.9c0.9-0.1,1.8-0.1,2.7-0.2l-2-16.2c-0.6,0.1-1.3,0.1-1.9,0.1C75.1,133.1,75.7,138.5,76.4,143.9z"/>
		<path class="st0" d="M74.1,127.7c-0.5,0-0.9,0-1.4,0c-0.3,5.4-0.2,10.9-0.1,16.3c0.9,0,1.8,0,2.7-0.1
			C74.6,138.6,74,133.2,74.1,127.7z"/>
		<path class="st0" d="M71.6,127.8c-0.3,0-0.5,0-0.8,0L70,144c0.5,0,1,0,1.5,0C71.5,138.6,71.4,133.2,71.6,127.8z"/>
		<path class="st0" d="M112.1,131.9c0.6-0.4,1.3-0.9,1.9-1.3l-9.8-13.1c-0.5,0.3-0.9,0.6-1.4,0.9
			C105.4,123.3,108.6,127.7,112.1,131.9z"/>
		<path class="st0" d="M101.8,119.1c-0.3,0.2-0.6,0.4-0.9,0.6c3,4.6,6.2,9,8.8,13.8c0.5-0.3,0.9-0.6,1.4-0.9
			C107.7,128.3,104.5,123.8,101.8,119.1z"/>
		<path class="st0" d="M100,120.2c-0.4,0.2-0.7,0.4-1.1,0.6l7.4,14.6c0.9-0.5,1.7-0.9,2.5-1.4C106.2,129.2,102.9,124.8,100,120.2z"
			/>
		<path class="st0" d="M23.9,44.1c0.2-0.3,0.3-0.6,0.5-0.9l-13.7-8.9c-0.3,0.5-0.6,0.9-0.8,1.4C15,37.4,19.8,40.6,23.9,44.1z"/>
		<path class="st0" d="M22.6,46.5c0.2-0.5,0.5-1,0.8-1.4c-4-3.5-8.9-6.8-14.1-8.4c-0.5,0.9-1,1.8-1.4,2.7
			C13,41.2,17.5,44.5,22.6,46.5z"/>
		<path class="st0" d="M7.3,40.3c-0.3,0.7-0.7,1.3-1,2l15.1,6.4c0.2-0.4,0.4-0.8,0.6-1.2C17,45.4,12.5,42.2,7.3,40.3z"/>
		<path class="st0" d="M69.5,16.4c0.4,0,0.8,0,1.3,0c0-5.4-0.2-10.9-0.2-16.3c-0.8,0-1.5,0-2.3,0.1C68.5,5.6,69.4,10.9,69.5,16.4z"
			/>
		<path class="st0" d="M67.2,0.2c-0.7,0-1.5,0.1-2.2,0.2l2,16.2c0.5,0,1-0.1,1.5-0.1C68.3,11,67.4,5.6,67.2,0.2z"/>
		<path class="st0" d="M71.9,0c-0.1,0-0.2,0-0.3,0c0,5.4,0.2,10.9,0.2,16.3c0.4,0,0.9,0,1.3,0L74,0C73.3,0,72.6,0,71.9,0z"/>
		<path class="st0" d="M116.3,105.8c-0.3,0.4-0.6,0.8-0.9,1.2c4.6,3,8.7,6.7,13.5,9.3c0.4-0.6,0.9-1.2,1.3-1.7
			C125.9,111.1,120.8,108.8,116.3,105.8z"/>
		<path class="st0" d="M130.8,113.7c0.2-0.3,0.4-0.6,0.7-0.9l-13.7-8.9c-0.3,0.4-0.5,0.7-0.8,1.1C121.5,108,126.6,110.2,130.8,113.7
			z"/>
		<path class="st0" d="M114.7,107.8c-0.2,0.3-0.5,0.6-0.7,0.9l12,11.2c0.8-0.9,1.5-1.8,2.3-2.7C123.4,114.5,119.3,110.8,114.7,107.8
			z"/>
		<path class="st0" d="M49.7,133.5c1.4-2.9,2.6-5.9,3.7-8.9c-0.5-0.2-1-0.4-1.5-0.6l-6.4,15c0.6,0.2,1.2,0.4,1.8,0.7
			C48.3,137.7,48.7,135.5,49.7,133.5z"/>
		<path class="st0" d="M53.4,133.1c0.8-2.6,1.1-5.3,1.9-7.9c-0.3-0.1-0.6-0.2-0.8-0.3c-1.1,2.8-2.1,5.5-3.4,8.2
			c-1,2.2-1.6,4.7-2.7,6.9c0.8,0.3,1.6,0.5,2.4,0.8C51.6,138.3,52.6,135.7,53.4,133.1z"/>
		<path class="st0" d="M56.3,125.5c-0.7,2.6-1.1,5.3-1.9,7.8c-0.8,2.6-1.8,5.2-2.7,7.8c0.8,0.2,1.6,0.5,2.4,0.7l3.7-15.9
			C57.3,125.8,56.8,125.7,56.3,125.5z"/>
		<path class="st0" d="M109.7,113.1c-0.3,0.3-0.6,0.6-0.9,0.9c4.1,3.6,7.6,7.8,11,12.1c0.2-0.1,0.3-0.3,0.5-0.4
			c0.3-0.3,0.7-0.6,1-0.9C118.1,120.1,113.6,116.8,109.7,113.1z"/>
		<path class="st0" d="M122,123.9c0.5-0.5,1-1,1.5-1.4l-12-11.1c-0.4,0.4-0.7,0.7-1.1,1C114.4,116.1,118.8,119.4,122,123.9z"/>
		<path class="st0" d="M107.9,114.6c-0.3,0.3-0.6,0.5-0.9,0.8l9.8,13.1c0.7-0.6,1.5-1.2,2.2-1.8C115.5,122.5,112,118.2,107.9,114.6z
			"/>
		<path class="st0" d="M31.9,24.2c1.4,1.8,3.3,3.3,4.1,5.4c0.4-0.3,0.7-0.6,1.1-0.9l-9.8-13c-0.5,0.4-1,0.8-1.5,1.2
			C27.9,19.2,29.9,21.7,31.9,24.2z"/>
		<path class="st0" d="M28.9,25.5c1.8,2,3.8,3.6,5.7,5.3c0.2-0.2,0.4-0.3,0.5-0.5c0,0,0,0,0-0.1c-0.8-2.5-3.6-4.8-5.2-6.8
			c-1.6-2-3.2-4-4.9-5.9c-0.4,0.3-0.8,0.7-1.2,1c-0.4,0.3-0.7,0.6-1,1C25,21.3,27,23.3,28.9,25.5z"/>
		<path class="st0" d="M28.1,26.2c-1.9-2.1-4-4.1-6.1-6c-0.5,0.5-1,0.9-1.4,1.4l12,11.1c0.4-0.4,0.9-0.8,1.3-1.3
			C31.9,29.8,29.9,28.2,28.1,26.2z"/>
		<path class="st0" d="M19.3,54.1c0.3-0.7,0.5-1.5,0.8-2.2L5,45.5c-0.3,0.8-0.6,1.6-0.9,2.3C9.5,48.6,14.3,52.4,19.3,54.1z"/>
		<path class="st0" d="M18.8,55.6c0-0.2,0.1-0.3,0.1-0.5c-2.4-0.8-4.7-2-7-3c-2.7-1.2-5.3-2.8-8.2-3.2c-0.3,0.8-0.5,1.5-0.7,2.3
			C8.5,51.6,13.9,53.4,18.8,55.6z"/>
		<path class="st0" d="M2.7,52.3c-0.2,0.6-0.4,1.2-0.5,1.9l15.9,3.7c0.1-0.4,0.2-0.8,0.3-1.2C13.6,54.5,8.1,52.7,2.7,52.3z"/>
		<path class="st0" d="M53.2,19.6c0.3-0.1,0.6-0.2,0.9-0.3L49.3,3.6c-0.7,0.2-1.4,0.5-2.1,0.8C49.3,9.4,51.4,14.5,53.2,19.6z"/>
		<path class="st0" d="M47,13.5c1,2.5,2.5,4.7,3.5,7.2c0.5-0.2,1.1-0.4,1.6-0.6c-1.8-5.2-3.9-10.2-6.1-15.2
			c-0.7,0.3-1.4,0.6-2.1,0.9C45,8.3,46,10.9,47,13.5z"/>
		<path class="st0" d="M45.8,13.4c-1-2.4-1.9-4.9-2.8-7.3c-0.7,0.3-1.4,0.6-2.2,1l7.4,14.6c0.4-0.2,0.8-0.4,1.3-0.6
			C48.5,18.4,46.9,16,45.8,13.4z"/>
		<path class="st0" d="M19.7,91c-0.1-0.3-0.2-0.7-0.4-1L3.7,94.8c0.2,0.6,0.4,1.3,0.7,1.9C9.3,94.4,14.4,92.6,19.7,91z"/>
		<path class="st0" d="M20.4,93c-0.1-0.3-0.3-0.6-0.4-1c-5.2,1.5-10.4,3.4-15.3,5.7c0.3,0.8,0.7,1.7,1,2.5
			C10.8,98.1,15.6,95.5,20.4,93z"/>
		<path class="st0" d="M20.8,94c-4.8,2.5-9.6,5-14.6,7.2c0.3,0.7,0.6,1.3,0.9,2l14.5-7.4C21.3,95.2,21.1,94.6,20.8,94z"/>
		<path class="st0" d="M17.2,81.6c-0.1-0.4-0.1-0.7-0.2-1.1l-16.2,2c0.1,0.6,0.2,1.2,0.3,1.8C6.3,82.9,11.7,81.9,17.2,81.6z"/>
		<path class="st0" d="M17.6,83.9c-0.1-0.4-0.2-0.8-0.3-1.2C11.9,83,6.5,84,1.2,85.4c0.2,0.9,0.4,1.9,0.6,2.8
			C7.2,87.1,12.4,85.4,17.6,83.9z"/>
		<path class="st0" d="M2.1,89.3c0.2,0.7,0.3,1.4,0.5,2.1l15.6-4.8c-0.2-0.6-0.3-1.1-0.4-1.7C12.6,86.4,7.4,88.2,2.1,89.3z"/>
		<path class="st0" d="M16.3,71.8c0-0.3,0-0.6,0-0.9L0,70c0,0.5,0,1.1,0,1.6C5.4,71.3,10.9,72,16.3,71.8z"/>
		<path class="st0" d="M7.7,75.6c2.9-0.1,5.8-0.6,8.7-1.1c0-0.6,0-1.1-0.1-1.7C10.9,73.1,5.4,72.4,0,72.7c0,1,0,1.9,0.1,2.9
			C2.6,75.5,5.2,75.7,7.7,75.6z"/>
		<path class="st0" d="M8.7,76.7c-2.9,0.1-5.7-0.1-8.6,0c0.1,0.8,0.1,1.6,0.2,2.4l16.2-2c0-0.5-0.1-1-0.1-1.5
			C13.9,76,11.3,76.5,8.7,76.7z"/>
		<path class="st0" d="M17.2,62.2c0.1-0.3,0.1-0.6,0.2-0.9L1.5,57.5c-0.1,0.5-0.2,1.1-0.3,1.6C6.6,59.6,11.9,61,17.2,62.2z"/>
		<path class="st0" d="M16.9,64.2c0-0.3,0.1-0.6,0.1-0.9C11.7,62,6.4,60.7,1,60.3c-0.1,0.9-0.3,1.8-0.4,2.8
			C6,63.6,11.5,63.2,16.9,64.2z"/>
		<path class="st0" d="M0.4,64.1c-0.1,0.8-0.2,1.6-0.2,2.4l16.3,0.9c0.1-0.7,0.1-1.4,0.2-2.1C11.4,64.3,5.9,64.7,0.4,64.1z"/>
		<path class="st0" d="M131.7,31.7c-0.4-0.5-0.7-1.1-1.1-1.6l-13,9.8c0.2,0.3,0.4,0.6,0.6,0.9C122.6,37.6,127.2,34.8,131.7,31.7z"/>
		<path class="st0" d="M118.8,41.8c0.2,0.4,0.5,0.8,0.7,1.2c2.7-1.7,5.4-3.5,8.2-5.1c1.9-1.2,3.9-2.1,5.8-3.3
			c-0.4-0.6-0.8-1.3-1.2-1.9C127.8,35.7,123.2,38.5,118.8,41.8z"/>
		<path class="st0" d="M129,38.2c-3,1.8-6,3.7-9,5.6c0.3,0.4,0.5,0.9,0.8,1.3l14.5-7.4c-0.4-0.8-0.9-1.6-1.4-2.4
			C132.4,36.4,130.7,37.2,129,38.2z"/>
		<path class="st0" d="M23.8,99.9c-0.2-0.3-0.4-0.7-0.6-1l-14.5,7.4c0.3,0.6,0.6,1.2,1,1.7C14.4,105.4,18.7,102,23.8,99.9z"/>
		<path class="st0" d="M24.9,101.7c-0.2-0.3-0.3-0.5-0.5-0.8c-5.1,2-9.4,5.4-14.1,8.1c0.4,0.7,0.9,1.4,1.4,2.2
			C15.9,107.8,20.4,104.9,24.9,101.7z"/>
		<path class="st0" d="M25.4,102.6c-4.4,3.2-8.9,6.1-13.3,9.4c0.4,0.7,0.9,1.3,1.3,1.9l13-9.8C26.1,103.6,25.8,103.1,25.4,102.6z"/>
		<path class="st0" d="M29.4,36.3c0.3-0.3,0.5-0.6,0.7-0.9l-12-11.2c-0.4,0.5-0.9,1-1.3,1.5C21.5,28.7,24.9,33.1,29.4,36.3z"/>
		<path class="st0" d="M27.8,38.2c0.3-0.4,0.6-0.7,0.9-1.1c-4.4-3.2-7.9-7.6-12.5-10.5c-0.6,0.7-1.1,1.4-1.6,2.1
			C18.9,31.9,23.4,35.1,27.8,38.2z"/>
		<path class="st0" d="M13.9,29.5c-0.4,0.6-0.9,1.2-1.3,1.8l13.7,8.9c0.3-0.4,0.6-0.8,0.9-1.2C22.7,35.9,18.2,32.8,13.9,29.5z"/>
		<path class="st0" d="M137.6,42.3c-0.2-0.5-0.4-0.9-0.6-1.4l-14.5,7.4c0.2,0.4,0.3,0.7,0.5,1.1C127.6,46.6,132.5,44.3,137.6,42.3z"
			/>
		<path class="st0" d="M123.4,50.4c0.2,0.5,0.4,0.9,0.6,1.4c5.2-1.5,10.3-3.6,15.4-5.3c-0.4-1.1-0.9-2.2-1.3-3.2
			C133,45.3,128,47.6,123.4,50.4z"/>
		<path class="st0" d="M124.3,52.8c0.2,0.4,0.3,0.8,0.4,1.3l15.6-4.8c-0.2-0.6-0.4-1.2-0.6-1.8C134.6,49.3,129.5,51.3,124.3,52.8z"
			/>
		<path class="st0" d="M136.8,60.4c-3.3,0.5-6.6,1.5-9.9,1.7c0.1,0.5,0.2,0.9,0.2,1.4l16.2-2c-0.1-0.7-0.2-1.4-0.3-2.1
			C140.9,59.8,138.8,60.1,136.8,60.4z"/>
		<path class="st0" d="M135.2,56.4c2.3-0.5,4.5-1,6.8-1.6c-0.2-0.7-0.4-1.5-0.6-2.2l-15.6,4.8c0.1,0.4,0.2,0.8,0.3,1.2
			C129.2,58.2,132.1,57.1,135.2,56.4z"/>
		<path class="st0" d="M134.5,57.7c-2.7,0.7-5.4,1.6-8.2,2c0.1,0.4,0.2,0.9,0.3,1.3c3.1-0.2,6.1-1.1,9.1-1.6c2.3-0.4,4.7-0.7,7-1.1
			c-0.2-0.8-0.3-1.6-0.5-2.4C139.6,56.5,137.1,57,134.5,57.7z"/>
		<path class="st0" d="M39.3,17.1c1.2,2.5,2.7,4.8,4,7.2c0.6-0.4,1.2-0.8,1.9-1.1L37.8,8.7c-0.6,0.3-1.3,0.7-1.9,1.1
			C37.1,12.1,38.2,14.6,39.3,17.1z"/>
		<path class="st0" d="M36.6,17.9c1.7,2.5,3.8,4.6,5.5,7.2c0,0,0,0,0,0c0.1-0.1,0.2-0.1,0.3-0.2c-1.3-2.4-2.8-4.7-4-7.2
			c-1.2-2.5-2.2-5-3.5-7.4c-0.8,0.5-1.7,1-2.5,1.6C33.9,13.8,35.2,15.9,36.6,17.9z"/>
		<path class="st0" d="M41.2,25.6c-1.5-2.3-3.4-4.2-5-6.4c-1.6-2.2-3-4.6-4.7-6.7c-0.5,0.3-1,0.6-1.4,1l9.8,13
			C40.4,26.2,40.8,25.9,41.2,25.6C41.2,25.6,41.2,25.6,41.2,25.6z"/>
	</g>
</g>
</svg>
