<svg width="15" height="15" viewBox="0 0 15 15" fill="none" xmlns="http://www.w3.org/2000/svg">
<path fill-rule="evenodd" clip-rule="evenodd" d="M3 0C1.34314 0 0 1.34314 0 3V12C0 13.6569 1.34314 15 3 15H12C13.6569 15 15 13.6569 15 12V3C15 1.34314 13.6569 0 12 0H3ZM5.39136 8.38904C5.33691 8.90375 5.16443 9.30145 4.87402 9.58221C4.58557 9.86072 4.20142 10 3.72144 10C3.20105 10 2.78357 9.79388 2.46887 9.38171C2.15625 8.96948 2 8.41803 2 7.72729V7.25934C2 6.80707 2.07263 6.4093 2.21777 6.06616C2.36511 5.72302 2.57275 5.46014 2.84106 5.2774C3.10925 5.09247 3.41992 5 3.77283 5C4.24072 5 4.61584 5.14484 4.89819 5.43451C5.18054 5.72192 5.34497 6.12079 5.39136 6.63104H4.8075C4.75708 6.24329 4.64709 5.96259 4.47778 5.78876C4.3103 5.61499 4.07532 5.52808 3.77283 5.52808C3.40173 5.52808 3.11023 5.67957 2.89856 5.9826C2.68872 6.28564 2.58386 6.7168 2.58386 7.27606V7.74731C2.58386 8.27539 2.68372 8.69543 2.88342 9.00732C3.08301 9.31927 3.36243 9.47528 3.72144 9.47528C4.04407 9.47528 4.29114 9.39508 4.46265 9.23462C4.63599 9.07196 4.75098 8.7901 4.8075 8.38904H5.39136ZM9.13977 5.59491H7.72388V9.93317H7.146V5.59491H5.73328V5.06683H9.13977V5.59491ZM9.72363 9.93317L10.1381 8.66309H11.9835L12.4041 9.93317H13L11.3149 5.06683H10.8066L9.12463 9.93317H9.72363ZM11.811 8.13501H10.3135L11.0608 5.85895L11.811 8.13501Z" fill="#252525"/>
</svg>
