<svg width="15" height="15" viewBox="0 0 15 15" fill="none" xmlns="http://www.w3.org/2000/svg">
<rect x="0.25" y="0.25" width="14.5" height="14.5" rx="2.75" stroke="#252525" stroke-width="0.5"/>
<path d="M5.39136 8.38904C5.33691 8.90374 5.16447 9.30147 4.87404 9.58222C4.58563 9.86074 4.20141 10 3.7214 10C3.20105 10 2.78355 9.79389 2.46892 9.38168C2.15631 8.96947 2 8.418 2 7.72727V7.25936C2 6.80704 2.07261 6.40931 2.21782 6.06618C2.36505 5.72304 2.57279 5.46012 2.84103 5.27741C3.10928 5.09247 3.41988 5 3.77283 5C4.24074 5 4.61588 5.14483 4.89824 5.43449C5.1806 5.72193 5.34498 6.12077 5.39136 6.63102H4.80748C4.75706 6.24332 4.64714 5.96257 4.47772 5.78877C4.31032 5.61497 4.07536 5.52807 3.77283 5.52807C3.40172 5.52807 3.11029 5.67959 2.89851 5.98262C2.68876 6.28565 2.58388 6.7168 2.58388 7.27607V7.74733C2.58388 8.2754 2.68372 8.69541 2.88339 9.00735C3.08306 9.3193 3.36239 9.47527 3.7214 9.47527C4.0441 9.47527 4.29116 9.39505 4.4626 9.23463C4.63605 9.07197 4.75101 8.79011 4.80748 8.38904H5.39136Z" fill="#252525"/>
<path d="M9.13971 5.59492H7.72387V9.93315H7.14604V5.59492H5.73322V5.06684H9.13971V5.59492Z" fill="#252525"/>
<path d="M11.9835 8.6631H10.1381L9.7236 9.93315H9.12459L10.8067 5.06684H11.3149L13 9.93315H12.404L11.9835 8.6631ZM10.3135 8.13503H11.8111L11.0608 5.85896L10.3135 8.13503Z" fill="#252525"/>
</svg>
